<?xml version="1.0" encoding="utf-8"?>
<!-- Generator: Adobe Illustrator 22.1.0, SVG Export Plug-In . SVG Version: 6.00 Build 0)  -->
<svg version="1.1" id="Layer_1" xmlns="http://www.w3.org/2000/svg" xmlns:xlink="http://www.w3.org/1999/xlink" x="0px" y="0px"
	 viewBox="0 0 192.3 192.3" style="enable-background:new 0 0 192.3 192.3;" xml:space="preserve">
<style type="text/css">
	.st0{fill:#FFFFFF;stroke:#CE7019;stroke-width:1.14;}
	.st1{fill:#FFD200;}
	.st2{fill:#D31245;}
	.st3{fill:#004990;}
	.st4{fill:#47C3D3;}
	.st5{fill:url(#SVGID_1_);stroke:#CE7019;stroke-width:0.57;}
	.st6{fill:none;stroke:#CE7019;stroke-width:0.57;stroke-linecap:round;}
	.st7{fill:url(#SVGID_2_);stroke:#CE7019;stroke-width:0.57;}
	.st8{fill:url(#SVGID_3_);stroke:#CE7019;stroke-width:0.57;}
	.st9{fill:#FFD200;stroke:#CE7019;stroke-width:0.57;}
	.st10{fill:url(#SVGID_4_);stroke:#CE7019;stroke-width:0.57;}
	.st11{fill:url(#SVGID_5_);stroke:#CE7019;stroke-width:0.57;}
	.st12{fill:url(#SVGID_6_);stroke:#CE7019;stroke-width:0.57;}
	.st13{fill:url(#SVGID_7_);stroke:#CE7019;stroke-width:0.57;}
	.st14{fill:url(#SVGID_8_);stroke:#CE7019;stroke-width:0.57;}
	.st15{fill:url(#SVGID_9_);stroke:#CE7019;stroke-width:0.57;}
	.st16{fill:url(#SVGID_10_);stroke:#CE7019;stroke-width:0.57;}
	.st17{fill:url(#SVGID_11_);stroke:#CE7019;stroke-width:0.57;}
	.st18{fill:url(#SVGID_12_);stroke:#CE7019;stroke-width:0.57;}
	.st19{fill:url(#SVGID_13_);stroke:#CE7019;stroke-width:0.57;}
	.st20{fill:url(#SVGID_14_);stroke:#CE7019;stroke-width:0.57;}
	.st21{fill:url(#SVGID_15_);stroke:#CE7019;stroke-width:0.57;}
	.st22{fill:url(#SVGID_16_);stroke:#CE7019;stroke-width:0.57;}
	.st23{fill:url(#SVGID_17_);stroke:#CE7019;stroke-width:0.57;}
	.st24{fill:url(#SVGID_18_);stroke:#CE7019;stroke-width:0.57;}
	.st25{fill:url(#SVGID_19_);stroke:#CE7019;stroke-width:0.57;}
	.st26{fill:url(#SVGID_20_);stroke:#CE7019;stroke-width:0.57;}
	.st27{fill:url(#SVGID_21_);stroke:#CE7019;stroke-width:0.57;}
	.st28{fill:url(#SVGID_22_);stroke:#CE7019;stroke-width:0.57;}
	.st29{fill:url(#SVGID_23_);stroke:#CE7019;stroke-width:0.57;}
	.st30{fill:url(#SVGID_24_);stroke:#CE7019;stroke-width:0.57;}
	.st31{fill:url(#SVGID_25_);stroke:#CE7019;stroke-width:0.57;}
	.st32{fill:url(#SVGID_26_);stroke:#CE7019;stroke-width:0.57;}
	.st33{fill:url(#SVGID_27_);stroke:#CE7019;stroke-width:0.57;}
	.st34{fill:url(#SVGID_28_);stroke:#CE7019;stroke-width:0.57;}
	.st35{fill:url(#SVGID_29_);stroke:#CE7019;stroke-width:0.57;}
	.st36{fill:url(#SVGID_30_);stroke:#CE7019;stroke-width:0.57;}
	.st37{fill:url(#SVGID_31_);stroke:#CE7019;stroke-width:0.57;}
	.st38{fill:url(#SVGID_32_);stroke:#CE7019;stroke-width:0.57;}
	.st39{fill:url(#SVGID_33_);stroke:#CE7019;stroke-width:0.57;}
	.st40{fill:url(#SVGID_34_);stroke:#CE7019;stroke-width:0.57;}
	.st41{fill:url(#SVGID_35_);stroke:#CE7019;stroke-width:0.57;}
	.st42{fill:url(#SVGID_36_);stroke:#CE7019;stroke-width:0.57;}
	.st43{fill:url(#SVGID_37_);stroke:#CE7019;stroke-width:0.57;}
	.st44{fill:url(#SVGID_38_);stroke:#CE7019;stroke-width:0.57;}
	.st45{fill:url(#SVGID_39_);stroke:#CE7019;stroke-width:0.57;}
	.st46{fill:url(#SVGID_40_);stroke:#CE7019;stroke-width:0.57;}
	.st47{fill:url(#SVGID_41_);stroke:#CE7019;stroke-width:0.57;}
	.st48{fill:url(#SVGID_42_);stroke:#CE7019;stroke-width:0.57;}
	.st49{fill:url(#SVGID_43_);stroke:#CE7019;stroke-width:0.57;}
	.st50{fill:url(#SVGID_44_);stroke:#CE7019;stroke-width:0.57;}
	.st51{fill:url(#SVGID_45_);stroke:#CE7019;stroke-width:0.57;}
	.st52{fill:url(#SVGID_46_);stroke:#CE7019;stroke-width:0.57;}
	.st53{fill:url(#SVGID_47_);stroke:#CE7019;stroke-width:0.57;}
	.st54{fill:url(#SVGID_48_);stroke:#CE7019;stroke-width:0.57;}
	.st55{fill:url(#SVGID_49_);stroke:#CE7019;stroke-width:0.57;}
	.st56{fill:url(#SVGID_50_);stroke:#CE7019;stroke-width:0.57;}
	.st57{fill:url(#SVGID_51_);stroke:#CE7019;stroke-width:0.57;}
	.st58{fill:url(#SVGID_52_);stroke:#CE7019;stroke-width:0.57;}
	.st59{fill:url(#SVGID_53_);stroke:#CE7019;stroke-width:0.57;}
	.st60{fill:url(#SVGID_54_);stroke:#CE7019;stroke-width:0.57;}
	.st61{fill:url(#SVGID_55_);stroke:#CE7019;stroke-width:0.57;}
	.st62{fill:url(#SVGID_56_);stroke:#CE7019;stroke-width:0.57;}
	.st63{fill:url(#SVGID_57_);stroke:#CE7019;stroke-width:0.57;}
	.st64{fill:url(#SVGID_58_);stroke:#CE7019;stroke-width:0.57;}
	.st65{fill:url(#SVGID_59_);stroke:#CE7019;stroke-width:0.57;}
	.st66{fill:url(#SVGID_60_);stroke:#CE7019;stroke-width:0.57;}
	.st67{fill:url(#SVGID_61_);stroke:#CE7019;stroke-width:0.57;}
	.st68{fill:url(#SVGID_62_);stroke:#CE7019;stroke-width:0.57;}
	.st69{fill:url(#SVGID_63_);stroke:#CE7019;stroke-width:0.57;}
	.st70{fill:url(#SVGID_64_);stroke:#CE7019;stroke-width:0.57;}
	.st71{fill:url(#SVGID_65_);stroke:#CE7019;stroke-width:0.57;}
	.st72{fill:url(#SVGID_66_);stroke:#CE7019;stroke-width:0.57;}
	.st73{fill:url(#SVGID_67_);stroke:#CE7019;stroke-width:0.57;}
	.st74{fill:url(#SVGID_68_);stroke:#CE7019;stroke-width:0.57;}
	.st75{fill:url(#SVGID_69_);stroke:#CE7019;stroke-width:0.57;}
	.st76{fill:url(#SVGID_70_);stroke:#CE7019;stroke-width:0.57;}
	.st77{fill:url(#SVGID_71_);stroke:#CE7019;stroke-width:0.57;}
	.st78{fill:url(#SVGID_72_);stroke:#CE7019;stroke-width:0.57;}
	.st79{fill:url(#SVGID_73_);stroke:#CE7019;stroke-width:0.57;}
	.st80{fill:url(#SVGID_74_);stroke:#CE7019;stroke-width:0.57;}
	.st81{fill:url(#SVGID_75_);stroke:#CE7019;stroke-width:0.57;}
	.st82{fill:url(#SVGID_76_);stroke:#CE7019;stroke-width:0.57;}
	.st83{fill:url(#SVGID_77_);stroke:#CE7019;stroke-width:0.57;}
	.st84{fill:url(#SVGID_78_);stroke:#CE7019;stroke-width:0.57;}
	.st85{fill:none;stroke:#231F20;stroke-width:0.19;}
	.st86{fill:none;stroke:#006838;stroke-width:0.19;}
	.st87{fill:none;stroke:#3C2415;stroke-width:0.19;}
	.st88{fill:#C6BD91;stroke:#3C2415;stroke-width:0.28;}
	.st89{fill:url(#SVGID_79_);stroke:#3C2415;stroke-width:0.28;}
	.st90{fill:url(#SVGID_80_);stroke:#3C2415;stroke-width:0.28;}
	.st91{fill:url(#SVGID_81_);stroke:#3C3A38;stroke-width:0.47;}
	.st92{fill:none;stroke:#3C3A38;stroke-width:0.38;stroke-linecap:round;}
	.st93{fill:none;stroke:#3C3A38;stroke-width:0.19;stroke-linecap:round;}
	.st94{fill:none;stroke:#3C3A38;stroke-width:0.47;stroke-linecap:round;}
	.st95{fill:#B6B8BA;stroke:#3C3A38;stroke-width:0.47;stroke-miterlimit:8;}
	.st96{fill:url(#SVGID_82_);stroke:#3C3A38;stroke-width:0.47;}
	.st97{fill:#231F20;}
</style>
<title>ijc_logo</title>
<g id="text_logos">
	<ellipse class="st0" cx="96.2" cy="96.2" rx="95.6" ry="95.6"/>
	<path class="st1" d="M191.8,96.2c0,52.8-42.8,95.6-95.6,95.6S0.6,149,0.6,96.2S43.4,0.6,96.2,0.6c0,0,0,0,0,0
		C149,0.6,191.8,43.4,191.8,96.2z M96.2,4.2c-50.8,0-92,41.2-92,92s41.2,92,92,92s92-41.2,92-92l0,0C188.2,45.4,147,4.2,96.2,4.2
		L96.2,4.2z"/>
	<path class="st2" d="M118.1,117.5L118.1,117.5c-7.4-0.1-14.7-1.1-21.8-3v9c2.4,0.5,6.1,1.2,11.5,1.9c3.4,0.4,6.9,0.7,10.4,0.7
		c8.1-0.1,16.2-1.3,23.9-3.8c6.5-1.9,12.6-5.1,17.8-9.4l0,0l1,1.2l0.2,0.2c1.3-4.7,2.1-9.5,2.4-14.4
		C149.5,112.3,134,117.5,118.1,117.5z M117.7,135.1L117.7,135.1c-3.8,0-7.6-0.3-11.4-0.7c-4.3-0.5-7.6-1.1-10.1-1.6v9.9
		c2.7,0.5,6.2,1,10.4,1.6c3.7,0.5,7.5,0.7,11.3,0.8c7.8,0,15.6-1.2,23-3.7c2.8-0.9,5.5-2,8-3.4c3-3.8,5.6-7.9,7.8-12.3
		c-4,2.2-8.2,4-12.6,5.3C135.5,133.6,126.6,135,117.7,135.1L117.7,135.1z M118.5,154c-3.9,0.1-7.9-0.1-11.8-0.4
		c-4.3-0.4-7.7-0.8-10.5-1.2v11.1c13.2,0,26.1-3.9,37.1-11.2C128.4,153.3,123.5,153.9,118.5,154L118.5,154z"/>
	<path class="st2" d="M29.3,88.8c6.7-3.7,16.3-5.4,27-5.4c2.6,0,5.3,0.1,8,0.3V36.9C44.8,47.4,31.7,66.8,29.3,88.8z M128,36.9v56.2
		c11.4-1.8,21.8-7.1,32-16.5l0.1-1.5C154.7,58.8,143.2,45.1,128,36.9z"/>
	<path class="st2" d="M97.4,88.9V76.4L110,78c0,0-1.6-2-2.2-3c-0.5-0.6-0.5-1.5,0.1-2.1c0,0,0.1-0.1,0.1-0.1
		c0.6-0.4,12.7-9.7,12.7-9.7s-2.6-1.3-3.3-1.6s-0.9-0.7-0.7-1.3c0.2-0.6,3-7.5,3-7.5s-5.9,2.1-6.7,2.3s-1.2,0-1.3-0.5
		c-0.1-0.5-0.6-3.6-0.6-3.6s-6.6,5.8-7.2,6.4c-0.6,0.6-1.1,0.2-1-0.5l2.8-14.2c0,0-3.8,2.3-4.5,2.7c-0.7,0.4-1.1,0.4-1.4-0.3
		c-0.2-0.6-3.7-8.7-3.7-8.7s-3.4,8-3.7,8.7s-0.7,0.6-1.4,0.3s-4.5-2.7-4.5-2.7s2.7,13.6,2.8,14.2c0.1,0.6-0.4,1.1-1,0.5
		S81.2,51,81.2,51s-0.4,3.1-0.6,3.6c-0.1,0.5-0.6,0.7-1.3,0.5s-6.7-2.3-6.7-2.3s2.8,6.9,3,7.5s0,0.9-0.7,1.3s-3.3,1.7-3.3,1.7
		l12.7,9.7c0.6,0.5,0.8,1.4,0.3,2.1c0,0,0,0.1-0.1,0.1c-0.6,0.9-2.2,3-2.2,3l12.6-1.7v12.5H97.4z"/>
	<path class="st3" d="M96.2,114.5v48.9c-30.6,0-57.4-20.7-65.1-50.3l0.2-0.3c1.3-1.5,4.2-3,8.4-3.9c5-1,10-1.5,15.1-1.4
		c12.2,0,24.4,1.9,36.1,5.4C92.6,113.5,94.4,114,96.2,114.5z M91.8,156.9l-1.2-3.9l3.3-2.4h-4.1l-1.3-3.9l-1.3,3.9H83l3.3,2.4
		l-1.3,3.9l3.3-2.4L91.8,156.9z M87.2,134.8H83l3.3,2.4l-1.3,4l3.3-2.4l3.3,2.4l-1.2-3.9l3.3-2.4h-4.1l-1.3-3.9L87.2,134.8z
		 M91.8,125.4l-1.2-3.9l3.3-2.4h-4.1l-1.3-3.9l-1.3,3.9H83l3.3,2.4l-1.3,3.9l3.3-2.4L91.8,125.4z M73.9,142.1h-4.1l3.3,2.4l-1.3,3.9
		l3.3-2.4l3.3,2.4l-1.2-3.9l3.3-2.4h-4.1l-1.3-3.9L73.9,142.1z M78.5,132.7l-1.2-3.9l3.3-2.4h-4.1l-1.3-3.9l-1.3,3.9h-4.1l3.3,2.4
		l-1.3,3.9l3.3-2.4L78.5,132.7z M65.8,155l-1.3-3.9l3.3-2.4h-4.1l-1.3-3.9l-1.3,3.9h-4.1l3.3,2.4l-1.2,3.9l3.3-2.4L65.8,155z
		 M61.2,132.9h-4.1l3.3,2.4l-1.2,3.9l3.3-2.4l3.3,2.4l-1.3-3.9l3.3-2.4h-4.1l-1.3-3.9L61.2,132.9z M65.8,120.9l-1.3-3.9l3.3-2.4
		h-4.1l-1.3-3.9l-1.3,3.9h-4.1l3.3,2.4l-1.2,3.9l3.3-2.4L65.8,120.9z M48.3,141.5h-4.1l3.3,2.4l-1.3,3.9l3.3-2.4l3.3,2.4l-1.3-3.9
		l3.3-2.4h-4.1l-1.3-3.9L48.3,141.5z M53.3,130.5l-1.3-3.9l3.3-2.4h-4.1l-1.3-3.9l-1.3,3.9h-4.1l3.3,2.4l-1.2,3.9l3.3-2.4
		L53.3,130.5z M41.4,122.4l-1.3-3.9l3.3-2.4h-4.1l-1.3-3.9l-1.3,3.9h-4.1l3.3,2.4l-1.3,3.9l3.3-2.4L41.4,122.4z"/>
	<path class="st4" d="M118.9,98.8c-8.5,0-17.4-1.7-27.1-4.7l0,0c-11.5-3.7-23.5-5.6-35.5-5.7l0,0c-10.8,0-20.4,1.9-26.4,5.4l0,0
		l-1.4-2.3c6.7-4,16.6-5.8,27.7-5.8l0,0c12.3,0.1,24.6,2,36.3,5.8l0,0c9.4,3,18.1,4.6,26.3,4.6l0,0c15,0,28.2-5.3,41.1-17.2l0,0
		l1.8,2C148.6,93.1,134.6,98.8,118.9,98.8L118.9,98.8L118.9,98.8z"/>
	<path class="st4" d="M118.7,102.9c-9.2-0.1-18.4-1.7-27.1-4.7l0,0c-11.5-3.6-23.6-5.5-35.7-5.6l0,0c-11,0-20.5,1.9-25.7,5.4l0,0
		l-1.5-2.2c6-4.1,15.8-5.9,27.1-5.9l0,0c12.4,0.1,24.7,2,36.5,5.7l0,0c8.5,2.9,17.4,4.4,26.3,4.5l0,0c15.2,0,28.9-5.3,41.9-17.3l0,0
		l1.8,2C149,97.3,134.6,102.9,118.7,102.9L118.7,102.9L118.7,102.9z"/>
	<path class="st4" d="M118.5,107c-9.2-0.1-18.4-1.7-27.1-4.6l0,0c-11.6-3.6-23.7-5.5-35.8-5.6l0,0c-11.2,0-20.6,1.9-24.9,5.4l0,0
		l-1.7-2.1c5.3-4.2,15.1-5.9,26.6-6l0,0c12.4,0.1,24.8,2,36.6,5.7l0,0c8.5,2.8,17.4,4.4,26.3,4.5l0,0c15.4,0,29.5-5.2,42.8-17.5l0,0
		l1.8,1.9C149.4,101.4,134.4,106.9,118.5,107L118.5,107L118.5,107z"/>
	<path class="st4" d="M118.2,111.1c-9.2-0.1-18.4-1.7-27.2-4.6l0,0c-11.7-3.6-23.8-5.5-36-5.5l0,0c-5.1-0.1-10.1,0.4-15,1.4l0,0
		c-4.2,0.9-7.4,2.3-9.1,4l0,0l-1.8-1.9c2.3-2.2,5.9-3.6,10.4-4.6l0,0c5.1-1,10.4-1.5,15.6-1.4l0,0c12.5,0,24.9,1.9,36.8,5.6l0,0
		c8.5,2.8,17.4,4.3,26.3,4.4l0,0c15.6,0,30.2-5.2,43.6-17.6l0,0l1.8,2C149.8,105.6,134.5,111.1,118.2,111.1L118.2,111.1L118.2,111.1
		z"/>
	<path class="st4" d="M118,115.2c-9.2-0.1-18.4-1.6-27.2-4.5l0,0c-11.7-3.6-23.9-5.4-36.1-5.5l0,0c-5.1-0.1-10.1,0.4-15.1,1.4l0,0
		c-4.1,0.9-7.1,2.3-8.4,3.9l0,0l-2-1.7c2-2.3,5.4-3.8,9.8-4.8l0,0c5.2-1.1,10.4-1.6,15.7-1.5l0,0c12.5,0.1,24.9,2,36.9,5.7l0,0
		c8.5,2.8,17.4,4.3,26.4,4.4l0,0c15.7,0,30.9-5.2,44.4-17.7l0,0l1.8,1.9C150.2,109.8,134.4,115.2,118,115.2L118,115.2L118,115.2z"/>
	
		<linearGradient id="SVGID_1_" gradientUnits="userSpaceOnUse" x1="102.9204" y1="157.7543" x2="91.7704" y2="157.0444" gradientTransform="matrix(1 0 0 -1 -11.09 187.2)">
		<stop  offset="0" style="stop-color:#FFE600"/>
		<stop  offset="0.15" style="stop-color:#FFD200"/>
		<stop  offset="0.42" style="stop-color:#FFCE02"/>
		<stop  offset="0.66" style="stop-color:#FDC408"/>
		<stop  offset="0.89" style="stop-color:#FBB213"/>
		<stop  offset="1" style="stop-color:#FAA61A"/>
	</linearGradient>
	<path class="st5" d="M80.7,29.9c0,0,4.6,1.7,7.2,1.6c2.7-0.1,7.3-1.8,7.9-3.1c0,0-1.7-0.1-2.9-0.3c-1.3-0.3-2.6-0.4-3.9-0.4
		C86.2,28,83.3,28.7,80.7,29.9z"/>
	<path class="st6" d="M91.8,29.2c0,0-1.5,0.1-3.7,0.2s-5.6,0.8-7,0.6"/>
	
		<linearGradient id="SVGID_2_" gradientUnits="userSpaceOnUse" x1="97.9395" y1="154.8544" x2="86.7795" y2="155.2144" gradientTransform="matrix(1 0 0 -1 -11.09 187.2)">
		<stop  offset="0" style="stop-color:#FFE600"/>
		<stop  offset="0.15" style="stop-color:#FFD200"/>
		<stop  offset="0.42" style="stop-color:#FFCE02"/>
		<stop  offset="0.66" style="stop-color:#FDC408"/>
		<stop  offset="0.89" style="stop-color:#FBB213"/>
		<stop  offset="1" style="stop-color:#FAA61A"/>
	</linearGradient>
	<path class="st7" d="M75.7,32.2c0,0,4.5-1.8,7.2-1.8c2.7,0,7.4,1.6,8,2.9c0,0-1.7,0.2-2.9,0.3c-1.3,0.3-2.5,0.4-3.8,0.5
		C81.2,34,78.4,33.3,75.7,32.2z"/>
	<path class="st6" d="M86.8,32.5c0,0-1.5-0.1-3.7-0.1s-5.6-0.6-7-0.4"/>
	
		<linearGradient id="SVGID_3_" gradientUnits="userSpaceOnUse" x1="96.6484" y1="160.2535" x2="86.6884" y2="155.1935" gradientTransform="matrix(1 0 0 -1 -11.09 187.2)">
		<stop  offset="0" style="stop-color:#FFE600"/>
		<stop  offset="0.15" style="stop-color:#FFD200"/>
		<stop  offset="0.42" style="stop-color:#FFCE02"/>
		<stop  offset="0.66" style="stop-color:#FDC408"/>
		<stop  offset="0.89" style="stop-color:#FBB213"/>
		<stop  offset="1" style="stop-color:#FAA61A"/>
	</linearGradient>
	<path class="st8" d="M75.7,32.2c0,0,3.1-3.8,5.4-5.1c2.3-1.3,7.2-2.2,8.4-1.3c0,0-1.4,1-2.4,1.7c-1,0.9-2,1.6-3.1,2.3
		C81.4,31.1,78.6,31.9,75.7,32.2z"/>
	<path class="st6" d="M85.6,27.1c0,0-1.3,0.7-3.3,1.7s-5.2,2.2-6.4,3"/>
	<path class="st9" d="M77,32c0,0.6-0.5,1.1-1.1,1.1c-0.6,0-1.1-0.5-1.1-1.1c0-0.6,0.5-1.1,1.1-1.1c0,0,0,0,0,0
		C76.5,30.9,77,31.4,77,32z"/>
	
		<linearGradient id="SVGID_4_" gradientUnits="userSpaceOnUse" x1="48.7795" y1="125.773" x2="37.6095" y2="126.143" gradientTransform="matrix(0.9877 -0.1563 -0.1563 -0.9877 48.4698 166.455)">
		<stop  offset="0" style="stop-color:#FFE600"/>
		<stop  offset="0.15" style="stop-color:#FFD200"/>
		<stop  offset="0.42" style="stop-color:#FFCE02"/>
		<stop  offset="0.66" style="stop-color:#FDC408"/>
		<stop  offset="0.89" style="stop-color:#FBB213"/>
		<stop  offset="1" style="stop-color:#FAA61A"/>
	</linearGradient>
	<path class="st10" d="M65.9,36.2c0,0,4.2-2.5,6.8-2.9c2.6-0.4,7.5,0.4,8.4,1.6c0,0-1.6,0.4-2.8,0.8c-1.2,0.5-2.4,0.8-3.7,1.1
		C71.7,37.1,68.7,36.9,65.9,36.2z"/>
	<path class="st6" d="M77,34.8c0,0-1.5,0.2-3.7,0.5c-2.2,0.3-5.6,0.3-7,0.7"/>
	
		<linearGradient id="SVGID_5_" gradientUnits="userSpaceOnUse" x1="47.4786" y1="131.1974" x2="37.5086" y2="126.1374" gradientTransform="matrix(0.9877 -0.1563 -0.1563 -0.9877 48.4698 166.455)">
		<stop  offset="0" style="stop-color:#FFE600"/>
		<stop  offset="0.15" style="stop-color:#FFD200"/>
		<stop  offset="0.42" style="stop-color:#FFCE02"/>
		<stop  offset="0.66" style="stop-color:#FDC408"/>
		<stop  offset="0.89" style="stop-color:#FBB213"/>
		<stop  offset="1" style="stop-color:#FAA61A"/>
	</linearGradient>
	<path class="st11" d="M65.9,36.2c0,0,2.5-4.2,4.6-5.8s6.8-3.3,8.1-2.6c0,0-1.2,1.1-2.1,2.1c-0.8,1-1.7,1.9-2.7,2.7
		C71.4,34.2,68.7,35.4,65.9,36.2z"/>
	<path class="st6" d="M75,29.6c0,0-1.2,0.9-3,2.2c-1.8,1.3-4.8,3-5.8,4"/>
	<path class="st9" d="M67.2,35.8c0.1,0.6-0.3,1.2-0.9,1.3c-0.6,0.1-1.2-0.3-1.3-0.9c-0.1-0.6,0.3-1.2,0.9-1.3c0,0,0,0,0,0
		C66.6,34.8,67.1,35.2,67.2,35.8z"/>
	
		<linearGradient id="SVGID_6_" gradientUnits="userSpaceOnUse" x1="-5.1452" y1="103.7918" x2="-16.3152" y2="104.1618" gradientTransform="matrix(0.95 -0.31 -0.31 -0.95 104.64 135.28)">
		<stop  offset="0" style="stop-color:#FFE600"/>
		<stop  offset="0.15" style="stop-color:#FFD200"/>
		<stop  offset="0.42" style="stop-color:#FFCE02"/>
		<stop  offset="0.66" style="stop-color:#FDC408"/>
		<stop  offset="0.89" style="stop-color:#FBB213"/>
		<stop  offset="1" style="stop-color:#FAA61A"/>
	</linearGradient>
	<path class="st12" d="M56.9,41.6c0,0,3.7-3.1,6.3-4c2.5-0.9,7.5-0.8,8.5,0.3c0,0-1.5,0.7-2.7,1.2c-1.1,0.7-2.3,1.2-3.5,1.7
		C62.7,41.6,59.8,41.9,56.9,41.6z"/>
	<path class="st6" d="M67.6,38.5c0,0-1.4,0.4-3.6,1c-2.2,0.6-5.5,1.2-6.8,1.8"/>
	
		<linearGradient id="SVGID_7_" gradientUnits="userSpaceOnUse" x1="-6.3909" y1="109.1815" x2="-16.3509" y2="104.1215" gradientTransform="matrix(0.95 -0.31 -0.31 -0.95 104.64 135.28)">
		<stop  offset="0" style="stop-color:#FFE600"/>
		<stop  offset="0.15" style="stop-color:#FFD200"/>
		<stop  offset="0.42" style="stop-color:#FFCE02"/>
		<stop  offset="0.66" style="stop-color:#FDC408"/>
		<stop  offset="0.89" style="stop-color:#FBB213"/>
		<stop  offset="1" style="stop-color:#FAA61A"/>
	</linearGradient>
	<path class="st13" d="M56.9,41.6c0,0,1.8-4.5,3.6-6.5s6.2-4.3,7.6-3.9c0,0-1,1.3-1.7,2.3c-0.7,1.1-1.4,2.2-2.3,3.1
		C62,38.8,59.6,40.4,56.9,41.6z"/>
	<path class="st6" d="M64.8,33.7c0,0-1.1,1-2.6,2.7s-4.3,3.7-5.1,4.8"/>
	<path class="st9" d="M58.1,41.1c0.2,0.6-0.1,1.2-0.7,1.4c-0.6,0.2-1.2-0.1-1.4-0.7c-0.2-0.6,0.1-1.2,0.7-1.4c0,0,0,0,0,0
		C57.3,40.2,57.9,40.5,58.1,41.1C58.1,41.1,58.1,41.1,58.1,41.1z"/>
	
		<linearGradient id="SVGID_8_" gradientUnits="userSpaceOnUse" x1="-60.0073" y1="92.7435" x2="-71.1673" y2="93.1035" gradientTransform="matrix(0.8912 -0.4537 -0.4537 -0.8912 154.4674 98.9353)">
		<stop  offset="0" style="stop-color:#FFE600"/>
		<stop  offset="0.15" style="stop-color:#FFD200"/>
		<stop  offset="0.42" style="stop-color:#FFCE02"/>
		<stop  offset="0.66" style="stop-color:#FDC408"/>
		<stop  offset="0.89" style="stop-color:#FBB213"/>
		<stop  offset="1" style="stop-color:#FAA61A"/>
	</linearGradient>
	<path class="st14" d="M48.9,48.4c0,0,3.2-3.7,5.6-4.9c2.4-1.2,7.3-2,8.5-1c0,0-1.4,0.9-2.4,1.6c-1,0.8-2.1,1.6-3.2,2.2
		C54.7,47.5,51.8,48.2,48.9,48.4z"/>
	<path class="st6" d="M59,43.7c0,0-1.3,0.6-3.4,1.6s-5.3,2-6.5,2.8"/>
	
		<linearGradient id="SVGID_9_" gradientUnits="userSpaceOnUse" x1="-61.3083" y1="98.1658" x2="-71.2683" y2="93.1058" gradientTransform="matrix(0.8912 -0.4537 -0.4537 -0.8912 154.4674 98.9353)">
		<stop  offset="0" style="stop-color:#FFE600"/>
		<stop  offset="0.15" style="stop-color:#FFD200"/>
		<stop  offset="0.42" style="stop-color:#FFCE02"/>
		<stop  offset="0.66" style="stop-color:#FDC408"/>
		<stop  offset="0.89" style="stop-color:#FBB213"/>
		<stop  offset="1" style="stop-color:#FAA61A"/>
	</linearGradient>
	<path class="st15" d="M48.9,48.4c0,0,1-4.8,2.5-7s5.4-5.2,6.9-5c0,0-0.8,1.5-1.3,2.6c-0.5,1.2-1.1,2.4-1.8,3.5
		C53.5,44.8,51.4,46.8,48.9,48.4z"/>
	<path class="st6" d="M55.5,39.4c0,0-0.9,1.2-2.2,3S49.6,46.7,49,48"/>
	<path class="st9" d="M50,47.7c0.3,0.6,0.1,1.2-0.5,1.5c-0.6,0.3-1.2,0.1-1.5-0.5c-0.3-0.6-0.1-1.2,0.5-1.5
		C49,46.9,49.7,47.2,50,47.7C50,47.7,50,47.7,50,47.7z"/>
	
		<linearGradient id="SVGID_10_" gradientUnits="userSpaceOnUse" x1="-116.702" y1="88.7401" x2="-127.872" y2="89.1101" gradientTransform="matrix(0.8093 -0.5874 -0.5874 -0.8093 197.7181 53.2385)">
		<stop  offset="0" style="stop-color:#FFE600"/>
		<stop  offset="0.15" style="stop-color:#FFD200"/>
		<stop  offset="0.42" style="stop-color:#FFCE02"/>
		<stop  offset="0.66" style="stop-color:#FDC408"/>
		<stop  offset="0.89" style="stop-color:#FBB213"/>
		<stop  offset="1" style="stop-color:#FAA61A"/>
	</linearGradient>
	<path class="st16" d="M42,56.4c0,0,2.6-4.1,4.7-5.7s6.9-3.1,8.2-2.4c0,0-1.2,1.1-2.1,2C52,51.3,51,52.2,50,53
		C47.6,54.6,44.8,55.7,42,56.4z"/>
	<path class="st6" d="M51.3,50.2c0,0-1.2,0.8-3.1,2.1s-4.9,2.8-5.9,3.8"/>
	
		<linearGradient id="SVGID_11_" gradientUnits="userSpaceOnUse" x1="-118.0155" y1="94.1498" x2="-127.9755" y2="89.0898" gradientTransform="matrix(0.8093 -0.5874 -0.5874 -0.8093 197.7181 53.2385)">
		<stop  offset="0" style="stop-color:#FFE600"/>
		<stop  offset="0.15" style="stop-color:#FFD200"/>
		<stop  offset="0.42" style="stop-color:#FFCE02"/>
		<stop  offset="0.66" style="stop-color:#FDC408"/>
		<stop  offset="0.89" style="stop-color:#FBB213"/>
		<stop  offset="1" style="stop-color:#FAA61A"/>
	</linearGradient>
	<path class="st17" d="M42,56.4c0,0,0.3-4.8,1.4-7.3s4.6-6,6-6c0,0-0.5,1.6-0.9,2.8c-0.3,1.3-0.7,2.5-1.2,3.7
		C46,52.2,44.2,54.5,42,56.4z"/>
	<path class="st6" d="M47.1,46.5c0,0-0.7,1.3-1.7,3.3s-3,4.8-3.4,6.2"/>
	<path class="st9" d="M43,55.5c0.4,0.5,0.3,1.2-0.3,1.6c-0.5,0.4-1.2,0.3-1.6-0.3c-0.4-0.5-0.3-1.2,0.3-1.6c0,0,0,0,0,0
		C41.9,54.9,42.6,55,43,55.5C43,55.5,43,55.5,43,55.5z"/>
	
		<linearGradient id="SVGID_12_" gradientUnits="userSpaceOnUse" x1="-173.8486" y1="94.6815" x2="-185.0086" y2="95.0415" gradientTransform="matrix(0.7076 -0.7066 -0.7066 -0.7076 234.3886 1.7248)">
		<stop  offset="0" style="stop-color:#FFE600"/>
		<stop  offset="0.15" style="stop-color:#FFD200"/>
		<stop  offset="0.42" style="stop-color:#FFCE02"/>
		<stop  offset="0.66" style="stop-color:#FDC408"/>
		<stop  offset="0.89" style="stop-color:#FBB213"/>
		<stop  offset="1" style="stop-color:#FAA61A"/>
	</linearGradient>
	<path class="st18" d="M36.5,65.4c0,0,1.9-4.5,3.8-6.4s6.3-4.1,7.7-3.6c0,0-1,1.3-1.8,2.3c-0.7,1.1-1.5,2.1-2.4,3.1
		C41.7,62.7,39.2,64.3,36.5,65.4z"/>
	<path class="st6" d="M44.6,57.7c0,0-1.1,1-2.7,2.6s-4.4,3.6-5.3,4.7"/>
	
		<linearGradient id="SVGID_13_" gradientUnits="userSpaceOnUse" x1="-175.1695" y1="100.0964" x2="-185.1295" y2="95.0364" gradientTransform="matrix(0.7076 -0.7066 -0.7066 -0.7076 234.3886 1.7248)">
		<stop  offset="0" style="stop-color:#FFE600"/>
		<stop  offset="0.15" style="stop-color:#FFD200"/>
		<stop  offset="0.42" style="stop-color:#FFCE02"/>
		<stop  offset="0.66" style="stop-color:#FDC408"/>
		<stop  offset="0.89" style="stop-color:#FBB213"/>
		<stop  offset="1" style="stop-color:#FAA61A"/>
	</linearGradient>
	<path class="st19" d="M36.5,65.4c0,0-0.5-4.8,0.2-7.4s3.6-6.6,5-6.9c0,0-0.3,1.6-0.5,2.9c-0.1,1.3-0.3,2.6-0.6,3.8
		C39.7,60.5,38.3,63.1,36.5,65.4z"/>
	<path class="st6" d="M39.9,54.7c0,0-0.5,1.4-1.1,3.6s-2.2,5.2-2.4,6.6"/>
	<circle class="st9" cx="36.5" cy="65.1" r="1.1"/>
	
		<linearGradient id="SVGID_14_" gradientUnits="userSpaceOnUse" x1="-228.9379" y1="109.3557" x2="-240.0979" y2="109.7257" gradientTransform="matrix(0.5885 -0.8085 -0.8085 -0.5885 262.217 -54.6112)">
		<stop  offset="0" style="stop-color:#FFE600"/>
		<stop  offset="0.15" style="stop-color:#FFD200"/>
		<stop  offset="0.42" style="stop-color:#FFCE02"/>
		<stop  offset="0.66" style="stop-color:#FDC408"/>
		<stop  offset="0.89" style="stop-color:#FBB213"/>
		<stop  offset="1" style="stop-color:#FAA61A"/>
	</linearGradient>
	<path class="st20" d="M32.4,75.1c0,0,1.2-4.7,2.7-6.9s5.6-5,7.1-4.8c0,0-0.8,1.4-1.4,2.5c-0.5,1.2-1.1,2.3-1.9,3.4
		C37.1,71.6,34.9,73.6,32.4,75.1z"/>
	<path class="st6" d="M39.2,66.3c0,0-0.9,1.2-2.3,3s-3.8,4.2-4.5,5.4"/>
	
		<linearGradient id="SVGID_15_" gradientUnits="userSpaceOnUse" x1="-230.2427" y1="114.7435" x2="-240.1927" y2="109.6835" gradientTransform="matrix(0.5885 -0.8085 -0.8085 -0.5885 262.217 -54.6112)">
		<stop  offset="0" style="stop-color:#FFE600"/>
		<stop  offset="0.15" style="stop-color:#FFD200"/>
		<stop  offset="0.42" style="stop-color:#FFCE02"/>
		<stop  offset="0.66" style="stop-color:#FDC408"/>
		<stop  offset="0.89" style="stop-color:#FBB213"/>
		<stop  offset="1" style="stop-color:#FAA61A"/>
	</linearGradient>
	<path class="st21" d="M32.4,75.1c0,0-1.2-4.7-0.9-7.3s2.5-7.1,3.9-7.6c0,0,0,1.7,0,2.9c0.1,1.3,0.1,2.6,0,3.9
		C34.9,69.8,33.8,72.5,32.4,75.1z"/>
	<path class="st6" d="M34.2,64c0,0-0.2,1.5-0.6,3.7s-1.3,5.5-1.3,6.9"/>
	<path class="st9" d="M33.1,73.9c0.5,0.4,0.6,1.1,0.2,1.6c-0.4,0.5-1.1,0.6-1.6,0.2c-0.5-0.4-0.6-1.1-0.2-1.6
		C31.8,73.7,32.6,73.5,33.1,73.9C33.1,73.9,33.1,73.9,33.1,73.9z"/>
	
		<linearGradient id="SVGID_16_" gradientUnits="userSpaceOnUse" x1="-282.3265" y1="131.2097" x2="-293.4965" y2="131.5697" gradientTransform="matrix(0.4548 -0.8906 -0.8906 -0.4548 280.3472 -116.3469)">
		<stop  offset="0" style="stop-color:#FFE600"/>
		<stop  offset="0.15" style="stop-color:#FFD200"/>
		<stop  offset="0.42" style="stop-color:#FFCE02"/>
		<stop  offset="0.66" style="stop-color:#FDC408"/>
		<stop  offset="0.89" style="stop-color:#FBB213"/>
		<stop  offset="1" style="stop-color:#FAA61A"/>
	</linearGradient>
	<path class="st22" d="M29.9,85.3c0,0,0.5-4.8,1.6-7.2s4.7-5.9,6.2-5.9c0,0-0.6,1.6-1,2.8c-0.3,1.3-0.8,2.5-1.3,3.6
		C34,81.1,32.1,83.4,29.9,85.3z"/>
	<path class="st6" d="M35.3,75.5c0,0-0.7,1.3-1.8,3.3s-3.1,4.7-3.6,6.1"/>
	
		<linearGradient id="SVGID_17_" gradientUnits="userSpaceOnUse" x1="-283.6372" y1="136.6294" x2="-293.5972" y2="131.5694" gradientTransform="matrix(0.4548 -0.8906 -0.8906 -0.4548 280.3472 -116.3469)">
		<stop  offset="0" style="stop-color:#FFE600"/>
		<stop  offset="0.15" style="stop-color:#FFD200"/>
		<stop  offset="0.42" style="stop-color:#FFCE02"/>
		<stop  offset="0.66" style="stop-color:#FDC408"/>
		<stop  offset="0.89" style="stop-color:#FBB213"/>
		<stop  offset="1" style="stop-color:#FAA61A"/>
	</linearGradient>
	<path class="st23" d="M29.9,85.3c0,0-2-4.5-2.1-7.1s1.3-7.4,2.7-8.1c0,0,0.2,1.6,0.4,2.9c0.3,1.3,0.5,2.5,0.6,3.8
		C31.5,79.7,30.9,82.6,29.9,85.3z"/>
	<path class="st6" d="M29.9,74.1c0,0,0,1.5,0,3.7s-0.4,5.6-0.2,7"/>
	<path class="st9" d="M30.4,84.1c0.5,0.4,0.6,1.1,0.2,1.6c-0.3,0.4-0.8,0.5-1.2,0.4c-0.6-0.2-1-0.8-0.8-1.4s0.8-1,1.4-0.8
		C30.1,83.9,30.3,84,30.4,84.1z"/>
	
		<linearGradient id="SVGID_18_" gradientUnits="userSpaceOnUse" x1="-329.5952" y1="162.5717" x2="-340.7552" y2="162.9417" gradientTransform="matrix(0.3102 -0.9507 -0.9507 -0.3102 289.3817 -177.6837)">
		<stop  offset="0" style="stop-color:#FFE600"/>
		<stop  offset="0.15" style="stop-color:#FFD200"/>
		<stop  offset="0.42" style="stop-color:#FFCE02"/>
		<stop  offset="0.66" style="stop-color:#FDC408"/>
		<stop  offset="0.89" style="stop-color:#FBB213"/>
		<stop  offset="1" style="stop-color:#FAA61A"/>
	</linearGradient>
	<path class="st24" d="M29,95.8c0,0-0.3-4.9,0.5-7.4s3.8-6.5,5.3-6.7c0,0-0.3,1.6-0.6,2.9c-0.1,1.3-0.4,2.6-0.7,3.8
		C32.4,91.1,30.9,93.6,29,95.8z"/>
	<path class="st6" d="M32.8,85.3c0,0-0.5,1.4-1.2,3.5S29.2,94,29,95.4"/>
	
		<linearGradient id="SVGID_19_" gradientUnits="userSpaceOnUse" x1="-330.9049" y1="167.9638" x2="-340.8549" y2="162.9038" gradientTransform="matrix(0.3102 -0.9507 -0.9507 -0.3102 289.3817 -177.6837)">
		<stop  offset="0" style="stop-color:#FFE600"/>
		<stop  offset="0.15" style="stop-color:#FFD200"/>
		<stop  offset="0.42" style="stop-color:#FFCE02"/>
		<stop  offset="0.66" style="stop-color:#FDC408"/>
		<stop  offset="0.89" style="stop-color:#FBB213"/>
		<stop  offset="1" style="stop-color:#FAA61A"/>
	</linearGradient>
	<path class="st25" d="M29,95.8c0,0-2.6-4.1-3.1-6.7s0.2-7.5,1.4-8.4c0,0,0.5,1.6,0.9,2.8c0.5,1.2,0.9,2.4,1.2,3.7
		C29.7,90,29.6,92.9,29,95.8z"/>
	<path class="st6" d="M27.3,84.8c0,0,0.2,1.5,0.6,3.7s0.5,5.6,0.9,7"/>
	<circle class="st9" cx="28.9" cy="95.6" r="1.1"/>
	
		<linearGradient id="SVGID_20_" gradientUnits="userSpaceOnUse" x1="-372.5648" y1="200.5496" x2="-383.7348" y2="200.9196" gradientTransform="matrix(0.1576 -0.9875 -0.9875 -0.1576 288.4528 -240.9997)">
		<stop  offset="0" style="stop-color:#FFE600"/>
		<stop  offset="0.15" style="stop-color:#FFD200"/>
		<stop  offset="0.42" style="stop-color:#FFCE02"/>
		<stop  offset="0.66" style="stop-color:#FDC408"/>
		<stop  offset="0.89" style="stop-color:#FBB213"/>
		<stop  offset="1" style="stop-color:#FAA61A"/>
	</linearGradient>
	<path class="st26" d="M29.8,106.3c0,0-1.1-4.7-0.7-7.4s2.7-7,4.1-7.5c0,0-0.1,1.7-0.1,2.9c0.1,1.3,0,2.6-0.1,3.9
		C32.4,101.1,31.3,103.8,29.8,106.3z"/>
	<path class="st6" d="M31.9,95.3c0,0-0.3,1.5-0.7,3.7s-1.5,5.5-1.5,6.9"/>
	
		<linearGradient id="SVGID_21_" gradientUnits="userSpaceOnUse" x1="-373.8774" y1="205.9644" x2="-383.8374" y2="200.9144" gradientTransform="matrix(0.1576 -0.9875 -0.9875 -0.1576 288.4528 -240.9997)">
		<stop  offset="0" style="stop-color:#FFE600"/>
		<stop  offset="0.15" style="stop-color:#FFD200"/>
		<stop  offset="0.42" style="stop-color:#FFCE02"/>
		<stop  offset="0.66" style="stop-color:#FDC408"/>
		<stop  offset="0.89" style="stop-color:#FBB213"/>
		<stop  offset="1" style="stop-color:#FAA61A"/>
	</linearGradient>
	<path class="st27" d="M29.8,106.3c0,0-3.2-3.6-4.1-6.1s-1-7.5,0-8.5c0,0,0.7,1.5,1.3,2.6c0.7,1.1,1.3,2.2,1.8,3.4
		C29.6,100.5,29.9,103.4,29.8,106.3z"/>
	<path class="st6" d="M26.3,95.7c0,0,0.5,1.4,1.2,3.5s1.3,5.5,2,6.8"/>
	<path class="st9" d="M29.8,105c0.6,0.1,1,0.7,1,1.3c-0.1,0.6-0.7,1-1.3,1s-1-0.7-1-1.3c0,0,0,0,0,0C28.6,105.3,29.2,104.9,29.8,105
		z"/>
	
		<linearGradient id="SVGID_22_" gradientUnits="userSpaceOnUse" x1="-408.9679" y1="244.3619" x2="-420.1379" y2="244.7319" gradientTransform="matrix(1.396295e-03 -1 -1 -1.396295e-03 277.2614 -303.2514)">
		<stop  offset="0" style="stop-color:#FFE600"/>
		<stop  offset="0.15" style="stop-color:#FFD200"/>
		<stop  offset="0.42" style="stop-color:#FFCE02"/>
		<stop  offset="0.66" style="stop-color:#FDC408"/>
		<stop  offset="0.89" style="stop-color:#FBB213"/>
		<stop  offset="1" style="stop-color:#FAA61A"/>
	</linearGradient>
	<path class="st28" d="M32.2,116.6c0,0-1.8-4.5-1.8-7.2s1.6-7.4,2.9-8c0,0,0.2,1.7,0.3,2.9c0.3,1.3,0.5,2.5,0.5,3.8
		C33.9,111,33.3,113.9,32.2,116.6z"/>
	<path class="st6" d="M32.5,105.4c0,0-0.1,1.5-0.1,3.7s-0.6,5.6-0.4,7"/>
	
		<linearGradient id="SVGID_23_" gradientUnits="userSpaceOnUse" x1="-410.2901" y1="249.7671" x2="-420.2401" y2="244.7071" gradientTransform="matrix(1.396295e-03 -1 -1 -1.396295e-03 277.2614 -303.2514)">
		<stop  offset="0" style="stop-color:#FFE600"/>
		<stop  offset="0.15" style="stop-color:#FFD200"/>
		<stop  offset="0.42" style="stop-color:#FFCE02"/>
		<stop  offset="0.66" style="stop-color:#FDC408"/>
		<stop  offset="0.89" style="stop-color:#FBB213"/>
		<stop  offset="1" style="stop-color:#FAA61A"/>
	</linearGradient>
	<path class="st29" d="M32.2,116.6c0,0-3.8-3.1-5-5.4s-2.2-7.2-1.3-8.4c0,0,0.9,1.4,1.7,2.4c0.9,1,1.6,2,2.3,3.1
		C31,110.8,31.9,113.7,32.2,116.6z"/>
	<path class="st6" d="M27.1,106.6c0,0,0.7,1.3,1.7,3.3s2.2,5.2,3,6.4"/>
	<path class="st9" d="M32,115.2c0.6,0,1.1,0.5,1.2,1.1s-0.5,1.1-1.1,1.2c-0.6,0-1.1-0.5-1.2-1.1C30.9,115.7,31.4,115.2,32,115.2
		C32,115.2,32,115.2,32,115.2z"/>
	
		<linearGradient id="SVGID_24_" gradientUnits="userSpaceOnUse" x1="-437.6724" y1="293.3846" x2="-448.8323" y2="293.7546" gradientTransform="matrix(-0.1549 -0.9879 -0.9879 0.1549 256.6104 -362.5752)">
		<stop  offset="0" style="stop-color:#FFE600"/>
		<stop  offset="0.15" style="stop-color:#FFD200"/>
		<stop  offset="0.42" style="stop-color:#FFCE02"/>
		<stop  offset="0.66" style="stop-color:#FDC408"/>
		<stop  offset="0.89" style="stop-color:#FBB213"/>
		<stop  offset="1" style="stop-color:#FAA61A"/>
	</linearGradient>
	<path class="st30" d="M36.1,126.3c0,0-2.5-4.2-2.9-6.8s0.4-7.5,1.6-8.4c0,0,0.4,1.6,0.8,2.8c0.5,1.2,0.8,2.4,1.1,3.7
		C37,120.5,36.8,123.5,36.1,126.3z"/>
	<path class="st6" d="M34.8,115.2c0,0,0.2,1.5,0.5,3.7s0.3,5.6,0.7,7"/>
	
		<linearGradient id="SVGID_25_" gradientUnits="userSpaceOnUse" x1="-438.9756" y1="298.7883" x2="-448.9356" y2="293.7283" gradientTransform="matrix(-0.1549 -0.9879 -0.9879 0.1549 256.6104 -362.5752)">
		<stop  offset="0" style="stop-color:#FFE600"/>
		<stop  offset="0.15" style="stop-color:#FFD200"/>
		<stop  offset="0.42" style="stop-color:#FFCE02"/>
		<stop  offset="0.66" style="stop-color:#FDC408"/>
		<stop  offset="0.89" style="stop-color:#FBB213"/>
		<stop  offset="1" style="stop-color:#FAA61A"/>
	</linearGradient>
	<path class="st31" d="M36.1,126.3c0,0-4.2-2.5-5.8-4.6s-3.3-6.8-2.6-8.1c0,0,1.1,1.2,2.1,2.1c1,0.8,1.9,1.7,2.7,2.7
		C34.1,120.8,35.4,123.5,36.1,126.3z"/>
	<path class="st6" d="M29.6,117.3c0,0,0.9,1.2,2.2,3c1.3,1.8,3,4.8,4,5.8"/>
	<path class="st9" d="M35.8,125c0.6-0.1,1.2,0.4,1.3,1c0.1,0.6-0.3,1.1-0.9,1.3c-0.6,0.1-1.2-0.4-1.3-1
		C34.8,125.7,35.2,125.1,35.8,125z"/>
	
		<linearGradient id="SVGID_26_" gradientUnits="userSpaceOnUse" x1="-459.4796" y1="347.7046" x2="-470.6396" y2="348.0746" gradientTransform="matrix(-0.31 -0.95 -0.95 0.31 226.16 -419.68)">
		<stop  offset="0" style="stop-color:#FFE600"/>
		<stop  offset="0.15" style="stop-color:#FFD200"/>
		<stop  offset="0.42" style="stop-color:#FFCE02"/>
		<stop  offset="0.66" style="stop-color:#FDC408"/>
		<stop  offset="0.89" style="stop-color:#FBB213"/>
		<stop  offset="1" style="stop-color:#FAA61A"/>
	</linearGradient>
	<path class="st32" d="M41.6,135.3c0,0-3.1-3.7-4-6.3s-0.8-7.5,0.3-8.5c0,0,0.7,1.5,1.2,2.6c0.7,1.1,1.2,2.3,1.7,3.5
		C41.6,129.5,41.8,132.4,41.6,135.3z"/>
	<path class="st6" d="M38.5,124.6c0,0,0.4,1.4,1,3.6s1.2,5.5,1.8,6.8"/>
	
		<linearGradient id="SVGID_27_" gradientUnits="userSpaceOnUse" x1="-460.6506" y1="353.1884" x2="-470.6106" y2="348.1284" gradientTransform="matrix(-0.31 -0.95 -0.95 0.31 226.16 -419.68)">
		<stop  offset="0" style="stop-color:#FFE600"/>
		<stop  offset="0.15" style="stop-color:#FFD200"/>
		<stop  offset="0.42" style="stop-color:#FFCE02"/>
		<stop  offset="0.66" style="stop-color:#FDC408"/>
		<stop  offset="0.89" style="stop-color:#FBB213"/>
		<stop  offset="1" style="stop-color:#FAA61A"/>
	</linearGradient>
	<path class="st33" d="M41.6,135.3c0,0-4.5-1.8-6.5-3.6s-4.3-6.2-3.9-7.6c0,0,1.3,1,2.4,1.7c1.1,0.7,2.2,1.4,3.1,2.3
		C38.8,130.2,40.4,132.7,41.6,135.3z"/>
	<path class="st6" d="M33.7,127.4c0,0,1,1.1,2.6,2.6s3.7,4.3,4.8,5.1"/>
	<path class="st9" d="M41,134.1c0.6-0.2,1.2,0.1,1.4,0.7c0.2,0.6-0.1,1.2-0.7,1.4l0,0c-0.6,0.2-1.2-0.1-1.4-0.7
		C40.1,134.9,40.5,134.3,41,134.1z"/>
	
		<linearGradient id="SVGID_28_" gradientUnits="userSpaceOnUse" x1="-471.627" y1="402.021" x2="-482.787" y2="402.391" gradientTransform="matrix(-0.4524 -0.8918 -0.8918 0.4524 188.6273 -469.156)">
		<stop  offset="0" style="stop-color:#FFE600"/>
		<stop  offset="0.15" style="stop-color:#FFD200"/>
		<stop  offset="0.42" style="stop-color:#FFCE02"/>
		<stop  offset="0.66" style="stop-color:#FDC408"/>
		<stop  offset="0.89" style="stop-color:#FBB213"/>
		<stop  offset="1" style="stop-color:#FAA61A"/>
	</linearGradient>
	<path class="st34" d="M48.4,143.4c0,0-3.7-3.2-4.9-5.6s-2-7.3-1-8.5c0,0,0.9,1.4,1.6,2.4c0.8,1,1.5,2.1,2.2,3.2
		C47.5,137.6,48.2,140.5,48.4,143.4z"/>
	<path class="st6" d="M43.7,133.2c0,0,0.6,1.4,1.6,3.4s2,5.3,2.8,6.4"/>
	
		<linearGradient id="SVGID_29_" gradientUnits="userSpaceOnUse" x1="-472.9414" y1="407.4721" x2="-482.9015" y2="402.4221" gradientTransform="matrix(-0.4524 -0.8918 -0.8918 0.4524 188.6273 -469.156)">
		<stop  offset="0" style="stop-color:#FFE600"/>
		<stop  offset="0.15" style="stop-color:#FFD200"/>
		<stop  offset="0.42" style="stop-color:#FFCE02"/>
		<stop  offset="0.66" style="stop-color:#FDC408"/>
		<stop  offset="0.89" style="stop-color:#FBB213"/>
		<stop  offset="1" style="stop-color:#FAA61A"/>
	</linearGradient>
	<path class="st35" d="M48.4,143.4c0,0-4.8-1-7-2.5s-5.2-5.4-5-6.9c0,0,1.5,0.8,2.6,1.4c1.2,0.5,2.4,1.1,3.5,1.8
		C44.8,138.8,46.8,140.9,48.4,143.4z"/>
	<path class="st6" d="M39.4,136.8c0,0,1.2,0.9,3,2.2s4.3,3.7,5.6,4.3"/>
	<path class="st9" d="M47.7,142.2c0.6-0.3,1.2-0.1,1.5,0.5s0.1,1.2-0.5,1.5c-0.6,0.3-1.2,0.1-1.5-0.5c0,0,0,0,0,0
		C46.9,143.2,47.1,142.5,47.7,142.2C47.7,142.2,47.7,142.2,47.7,142.2z"/>
	
		<linearGradient id="SVGID_30_" gradientUnits="userSpaceOnUse" x1="-474.0485" y1="459.6651" x2="-485.2085" y2="460.0351" gradientTransform="matrix(-0.59 -0.81 -0.81 0.59 142.36 -514.33)">
		<stop  offset="0" style="stop-color:#FFE600"/>
		<stop  offset="0.15" style="stop-color:#FFD200"/>
		<stop  offset="0.42" style="stop-color:#FFCE02"/>
		<stop  offset="0.66" style="stop-color:#FDC408"/>
		<stop  offset="0.89" style="stop-color:#FBB213"/>
		<stop  offset="1" style="stop-color:#FAA61A"/>
	</linearGradient>
	<path class="st36" d="M56.3,150.3c0,0-4.1-2.6-5.7-4.8s-3.1-6.9-2.4-8.2c0,0,1.1,1.2,2,2.1c1,0.9,1.8,1.8,2.6,2.8
		C54.5,144.7,55.7,147.4,56.3,150.3z"/>
	<path class="st6" d="M50.1,141c0,0,0.8,1.2,2.1,3.1c1.3,1.8,2.8,4.9,3.8,5.9"/>
	
		<linearGradient id="SVGID_31_" gradientUnits="userSpaceOnUse" x1="-475.3282" y1="465.2347" x2="-485.2782" y2="460.1747" gradientTransform="matrix(-0.59 -0.81 -0.81 0.59 142.36 -514.33)">
		<stop  offset="0" style="stop-color:#FFE600"/>
		<stop  offset="0.15" style="stop-color:#FFD200"/>
		<stop  offset="0.42" style="stop-color:#FFCE02"/>
		<stop  offset="0.66" style="stop-color:#FDC408"/>
		<stop  offset="0.89" style="stop-color:#FBB213"/>
		<stop  offset="1" style="stop-color:#FAA61A"/>
	</linearGradient>
	<path class="st37" d="M56.3,150.3c0,0-4.9-0.3-7.3-1.4s-6-4.6-6-6.1c0,0,1.6,0.6,2.8,0.9c1.3,0.3,2.5,0.7,3.7,1.2
		C52.1,146.3,54.4,148.1,56.3,150.3z"/>
	<path class="st6" d="M46.4,145.2c0,0,1.3,0.7,3.3,1.7s4.8,2.9,6.2,3.3"/>
	<path class="st9" d="M55.5,149.2c0.5-0.4,1.2-0.2,1.6,0.3c0.4,0.5,0.3,1.2-0.2,1.6s-1.2,0.3-1.6-0.2c0,0,0,0,0-0.1
		C54.8,150.3,54.9,149.6,55.5,149.2z"/>
	
		<linearGradient id="SVGID_32_" gradientUnits="userSpaceOnUse" x1="-467.6979" y1="516.9681" x2="-478.8679" y2="517.3381" gradientTransform="matrix(-0.71 -0.71 -0.71 0.71 92.15 -551.66)">
		<stop  offset="0" style="stop-color:#FFE600"/>
		<stop  offset="0.15" style="stop-color:#FFD200"/>
		<stop  offset="0.42" style="stop-color:#FFCE02"/>
		<stop  offset="0.66" style="stop-color:#FDC408"/>
		<stop  offset="0.89" style="stop-color:#FBB213"/>
		<stop  offset="1" style="stop-color:#FAA61A"/>
	</linearGradient>
	<path class="st38" d="M65.3,155.8c0,0-4.5-1.9-6.4-3.8s-4.1-6.3-3.6-7.8c0,0,1.3,1.1,2.3,1.8c1.1,0.7,2.1,1.5,3,2.4
		C62.6,150.6,64.2,153.1,65.3,155.8z"/>
	<path class="st6" d="M57.7,147.7c0,0,1,1.1,2.6,2.7s3.5,4.4,4.7,5.3"/>
	
		<linearGradient id="SVGID_33_" gradientUnits="userSpaceOnUse" x1="-469.0894" y1="522.5734" x2="-479.0494" y2="517.5134" gradientTransform="matrix(-0.71 -0.71 -0.71 0.71 92.15 -551.66)">
		<stop  offset="0" style="stop-color:#FFE600"/>
		<stop  offset="0.15" style="stop-color:#FFD200"/>
		<stop  offset="0.42" style="stop-color:#FFCE02"/>
		<stop  offset="0.66" style="stop-color:#FDC408"/>
		<stop  offset="0.89" style="stop-color:#FBB213"/>
		<stop  offset="1" style="stop-color:#FAA61A"/>
	</linearGradient>
	<path class="st39" d="M65.3,155.8c0,0-4.8,0.5-7.4-0.3s-6.6-3.6-6.9-5c0,0,1.6,0.3,2.9,0.5c1.3,0.1,2.6,0.3,3.8,0.6
		C60.5,152.6,63,154,65.3,155.8z"/>
	<path class="st6" d="M54.7,152.3c0,0,1.4,0.5,3.6,1.1s5.2,2.2,6.6,2.4"/>
	<path class="st9" d="M64.3,155c0.4-0.4,1.2-0.4,1.6,0c0.4,0.4,0.4,1.2,0,1.6c-0.4,0.4-1.2,0.4-1.6,0c0,0,0,0,0,0
		C63.8,156.1,63.8,155.4,64.3,155z"/>
	
		<linearGradient id="SVGID_34_" gradientUnits="userSpaceOnUse" x1="-454.4748" y1="571.8824" x2="-465.6348" y2="572.2524" gradientTransform="matrix(-0.81 -0.59 -0.59 0.81 35.15 -578.31)">
		<stop  offset="0" style="stop-color:#FFE600"/>
		<stop  offset="0.15" style="stop-color:#FFD200"/>
		<stop  offset="0.42" style="stop-color:#FFCE02"/>
		<stop  offset="0.66" style="stop-color:#FDC408"/>
		<stop  offset="0.89" style="stop-color:#FBB213"/>
		<stop  offset="1" style="stop-color:#FAA61A"/>
	</linearGradient>
	<path class="st40" d="M75,159.9c0,0-4.7-1.2-6.9-2.8c-2.1-1.6-5-5.6-4.8-7.1c0,0,1.4,0.8,2.5,1.4c1.2,0.5,2.3,1.1,3.4,1.9
		C71.6,155.2,73.5,157.4,75,159.9z"/>
	<path class="st6" d="M66.2,153c0,0,1.2,0.9,3,2.3s4.2,3.8,5.4,4.5"/>
	
		<linearGradient id="SVGID_35_" gradientUnits="userSpaceOnUse" x1="-455.8121" y1="577.3775" x2="-465.7721" y2="572.3175" gradientTransform="matrix(-0.81 -0.59 -0.59 0.81 35.15 -578.31)">
		<stop  offset="0" style="stop-color:#FFE600"/>
		<stop  offset="0.15" style="stop-color:#FFD200"/>
		<stop  offset="0.42" style="stop-color:#FFCE02"/>
		<stop  offset="0.66" style="stop-color:#FDC408"/>
		<stop  offset="0.89" style="stop-color:#FBB213"/>
		<stop  offset="1" style="stop-color:#FAA61A"/>
	</linearGradient>
	<path class="st41" d="M75,159.9c0,0-4.7,1.2-7.4,0.9s-7.1-2.5-7.6-3.9c0,0,1.7,0,2.9,0c1.3-0.1,2.6-0.1,3.9,0
		C69.7,157.4,72.5,158.4,75,159.9z"/>
	<path class="st6" d="M64,158.1c0,0,1.5,0.2,3.7,0.6s5.5,1.3,6.9,1.3"/>
	<path class="st9" d="M73.9,159.2c0.4-0.5,1.1-0.6,1.6-0.3c0.5,0.4,0.6,1.1,0.3,1.6c-0.4,0.5-1.1,0.6-1.6,0.3c0,0,0,0,0,0
		C73.6,160.4,73.5,159.7,73.9,159.2z"/>
	
		<linearGradient id="SVGID_36_" gradientUnits="userSpaceOnUse" x1="-432.3909" y1="624.0026" x2="-443.5509" y2="624.3726" gradientTransform="matrix(-0.8899 -0.4562 -0.4562 0.8899 -24.788 -595.3268)">
		<stop  offset="0" style="stop-color:#FFE600"/>
		<stop  offset="0.15" style="stop-color:#FFD200"/>
		<stop  offset="0.42" style="stop-color:#FFCE02"/>
		<stop  offset="0.66" style="stop-color:#FDC408"/>
		<stop  offset="0.89" style="stop-color:#FBB213"/>
		<stop  offset="1" style="stop-color:#FAA61A"/>
	</linearGradient>
	<path class="st42" d="M85.2,162.4c0,0-4.8-0.4-7.2-1.6c-2.4-1.2-5.8-4.8-5.8-6.2c0,0,1.6,0.6,2.8,1c1.2,0.3,2.5,0.8,3.6,1.3
		C81.1,158.3,83.3,160.2,85.2,162.4z"/>
	<path class="st6" d="M75.4,157c0,0,1.3,0.7,3.3,1.8c2,1.1,4.7,3.1,6.1,3.6"/>
	
		<linearGradient id="SVGID_37_" gradientUnits="userSpaceOnUse" x1="-433.6826" y1="629.3718" x2="-443.6425" y2="624.3118" gradientTransform="matrix(-0.8899 -0.4562 -0.4562 0.8899 -24.788 -595.3268)">
		<stop  offset="0" style="stop-color:#FFE600"/>
		<stop  offset="0.15" style="stop-color:#FFD200"/>
		<stop  offset="0.42" style="stop-color:#FFCE02"/>
		<stop  offset="0.66" style="stop-color:#FDC408"/>
		<stop  offset="0.89" style="stop-color:#FBB213"/>
		<stop  offset="1" style="stop-color:#FAA61A"/>
	</linearGradient>
	<path class="st43" d="M85.2,162.4c0,0-4.5,1.9-7.1,2c-2.7,0.1-7.4-1.3-8.1-2.7c0,0,1.6-0.2,2.9-0.4c1.3-0.3,2.5-0.5,3.8-0.6
		C79.6,160.8,82.5,161.4,85.2,162.4z"/>
	<path class="st6" d="M74.1,162.4c0,0,1.5,0,3.7,0s5.6,0.4,7,0.2"/>
	<path class="st9" d="M84,161.9c0.3-0.6,1-0.8,1.5-0.5s0.8,1,0.5,1.5s-1,0.8-1.5,0.5c0,0,0,0,0,0C83.9,163.2,83.7,162.5,84,161.9z"
		/>
	
		<linearGradient id="SVGID_38_" gradientUnits="userSpaceOnUse" x1="-402.293" y1="672.4802" x2="-413.463" y2="672.8402" gradientTransform="matrix(-0.9503 -0.3113 -0.3113 0.9503 -87.7818 -604.5873)">
		<stop  offset="0" style="stop-color:#FFE600"/>
		<stop  offset="0.15" style="stop-color:#FFD200"/>
		<stop  offset="0.42" style="stop-color:#FFCE02"/>
		<stop  offset="0.66" style="stop-color:#FDC408"/>
		<stop  offset="0.89" style="stop-color:#FBB213"/>
		<stop  offset="1" style="stop-color:#FAA61A"/>
	</linearGradient>
	<path class="st44" d="M95.7,163.3c0,0-4.9,0.3-7.4-0.5s-6.5-3.8-6.7-5.3c0,0,1.6,0.4,2.9,0.6c1.3,0.1,2.6,0.4,3.8,0.7
		C91,159.9,93.5,161.4,95.7,163.3z"/>
	<path class="st6" d="M85.2,159.5c0,0,1.4,0.5,3.5,1.3c2.1,0.8,5.2,2.3,6.6,2.6"/>
	
		<linearGradient id="SVGID_39_" gradientUnits="userSpaceOnUse" x1="-403.6015" y1="677.8762" x2="-413.5615" y2="672.8162" gradientTransform="matrix(-0.9503 -0.3113 -0.3113 0.9503 -87.7818 -604.5873)">
		<stop  offset="0" style="stop-color:#FFE600"/>
		<stop  offset="0.15" style="stop-color:#FFD200"/>
		<stop  offset="0.42" style="stop-color:#FFCE02"/>
		<stop  offset="0.66" style="stop-color:#FDC408"/>
		<stop  offset="0.89" style="stop-color:#FBB213"/>
		<stop  offset="1" style="stop-color:#FAA61A"/>
	</linearGradient>
	<path class="st45" d="M95.7,163.3c0,0-4.1,2.6-6.7,3.1c-2.6,0.5-7.5-0.2-8.4-1.4c0,0,1.6-0.5,2.8-0.9c1.2-0.5,2.4-0.9,3.7-1.2
		C89.9,162.6,92.9,162.7,95.7,163.3z"/>
	<path class="st6" d="M84.7,165.1c0,0,1.5-0.2,3.7-0.6s5.6-0.4,7-0.9"/>
	<path class="st9" d="M94.4,163.1c0.2-0.6,0.8-0.9,1.4-0.7c0.6,0.2,0.9,0.8,0.7,1.4c-0.2,0.6-0.8,0.9-1.4,0.7
		C94.5,164.3,94.2,163.6,94.4,163.1C94.4,163.1,94.4,163.1,94.4,163.1z"/>
	
		<linearGradient id="SVGID_40_" gradientUnits="userSpaceOnUse" x1="-314.7897" y1="157.7549" x2="-325.9297" y2="157.0449" gradientTransform="matrix(-1 0 0 -1 -214.28 187.2)">
		<stop  offset="0" style="stop-color:#FFE600"/>
		<stop  offset="0.15" style="stop-color:#FFD200"/>
		<stop  offset="0.42" style="stop-color:#FFCE02"/>
		<stop  offset="0.66" style="stop-color:#FDC408"/>
		<stop  offset="0.89" style="stop-color:#FBB213"/>
		<stop  offset="1" style="stop-color:#FAA61A"/>
	</linearGradient>
	<path class="st46" d="M111.7,29.9c0,0-4.6,1.7-7.2,1.6s-7.3-1.8-7.9-3.1c0,0,1.6-0.1,2.9-0.3c1.3-0.3,2.6-0.4,3.9-0.4
		C106.2,28,109,28.7,111.7,29.9z"/>
	<path class="st6" d="M100.5,29.2c0,0,1.5,0.1,3.7,0.2s5.6,0.8,7,0.6"/>
	
		<linearGradient id="SVGID_41_" gradientUnits="userSpaceOnUse" x1="-319.7605" y1="154.8539" x2="-330.9205" y2="155.2139" gradientTransform="matrix(-1 0 0 -1 -214.28 187.2)">
		<stop  offset="0" style="stop-color:#FFE600"/>
		<stop  offset="0.15" style="stop-color:#FFD200"/>
		<stop  offset="0.42" style="stop-color:#FFCE02"/>
		<stop  offset="0.66" style="stop-color:#FDC408"/>
		<stop  offset="0.89" style="stop-color:#FBB213"/>
		<stop  offset="1" style="stop-color:#FAA61A"/>
	</linearGradient>
	<path class="st47" d="M116.6,32.2c0,0-4.5-1.8-7.2-1.8c-2.7,0-7.4,1.6-8,2.9c0,0,1.7,0.2,2.9,0.3c1.3,0.3,2.5,0.4,3.8,0.5
		C111.1,34,114,33.3,116.6,32.2z"/>
	<path class="st6" d="M105.5,32.5c0,0,1.5-0.1,3.7-0.1s5.6-0.6,7-0.4"/>
	
		<linearGradient id="SVGID_42_" gradientUnits="userSpaceOnUse" x1="-321.0627" y1="160.2557" x2="-331.0227" y2="155.1957" gradientTransform="matrix(-1 0 0 -1 -214.28 187.2)">
		<stop  offset="0" style="stop-color:#FFE600"/>
		<stop  offset="0.15" style="stop-color:#FFD200"/>
		<stop  offset="0.42" style="stop-color:#FFCE02"/>
		<stop  offset="0.66" style="stop-color:#FDC408"/>
		<stop  offset="0.89" style="stop-color:#FBB213"/>
		<stop  offset="1" style="stop-color:#FAA61A"/>
	</linearGradient>
	<path class="st48" d="M116.6,32.2c0,0-3.1-3.8-5.4-5.1c-2.3-1.3-7.2-2.2-8.4-1.3c0,0,1.3,1,2.4,1.7c1,0.9,2,1.6,3.1,2.3
		C110.9,31.1,113.8,31.9,116.6,32.2z"/>
	<path class="st6" d="M106.7,27.1c0,0,1.3,0.7,3.3,1.7s5.2,2.2,6.4,3"/>
	<path class="st9" d="M115.3,32c0,0.6,0.5,1.1,1.1,1.1s1.1-0.5,1.1-1.1c0-0.6-0.5-1.1-1.1-1.1c0,0,0,0,0,0
		C115.8,30.9,115.3,31.4,115.3,32z"/>
	
		<linearGradient id="SVGID_43_" gradientUnits="userSpaceOnUse" x1="-363.954" y1="192.4133" x2="-375.1241" y2="192.7733" gradientTransform="matrix(-0.99 -0.16 0.16 -0.99 -276.16 166.8)">
		<stop  offset="0" style="stop-color:#FFE600"/>
		<stop  offset="0.15" style="stop-color:#FFD200"/>
		<stop  offset="0.42" style="stop-color:#FFCE02"/>
		<stop  offset="0.66" style="stop-color:#FDC408"/>
		<stop  offset="0.89" style="stop-color:#FBB213"/>
		<stop  offset="1" style="stop-color:#FAA61A"/>
	</linearGradient>
	<path class="st49" d="M126.4,36.2c0,0-4.2-2.5-6.8-2.9s-7.5,0.4-8.4,1.6c0,0,1.6,0.4,2.8,0.8c1.2,0.5,2.4,0.8,3.7,1.1
		C120.6,37.1,123.6,36.9,126.4,36.2z"/>
	<path class="st6" d="M115.3,34.8c0,0,1.5,0.2,3.7,0.5s5.6,0.3,7,0.7"/>
	
		<linearGradient id="SVGID_44_" gradientUnits="userSpaceOnUse" x1="-365.2415" y1="198.0292" x2="-375.2014" y2="192.9692" gradientTransform="matrix(-0.99 -0.16 0.16 -0.99 -276.16 166.8)">
		<stop  offset="0" style="stop-color:#FFE600"/>
		<stop  offset="0.15" style="stop-color:#FFD200"/>
		<stop  offset="0.42" style="stop-color:#FFCE02"/>
		<stop  offset="0.66" style="stop-color:#FDC408"/>
		<stop  offset="0.89" style="stop-color:#FBB213"/>
		<stop  offset="1" style="stop-color:#FAA61A"/>
	</linearGradient>
	<path class="st50" d="M126.4,36.2c0,0-2.5-4.2-4.6-5.8s-6.8-3.3-8.1-2.6c0,0,1.2,1.1,2.1,2.1c0.8,1,1.7,1.9,2.7,2.7
		C120.9,34.2,123.6,35.4,126.4,36.2z"/>
	<path class="st6" d="M117.4,29.6c0,0,1.2,0.9,3,2.2s4.8,3,5.8,4"/>
	<path class="st9" d="M125.1,35.8c-0.1,0.6,0.3,1.2,1,1.3s1.2-0.3,1.3-1c0.1-0.6-0.3-1.2-0.9-1.3C125.8,34.8,125.2,35.2,125.1,35.8z
		"/>
	
		<linearGradient id="SVGID_45_" gradientUnits="userSpaceOnUse" x1="-402.5221" y1="233.4577" x2="-413.6821" y2="233.8277" gradientTransform="matrix(-0.95 -0.31 0.31 -0.95 -330.01 135.28)">
		<stop  offset="0" style="stop-color:#FFE600"/>
		<stop  offset="0.15" style="stop-color:#FFD200"/>
		<stop  offset="0.42" style="stop-color:#FFCE02"/>
		<stop  offset="0.66" style="stop-color:#FDC408"/>
		<stop  offset="0.89" style="stop-color:#FBB213"/>
		<stop  offset="1" style="stop-color:#FAA61A"/>
	</linearGradient>
	<path class="st51" d="M135.4,41.6c0,0-3.7-3.1-6.3-4s-7.5-0.8-8.5,0.3c0,0,1.5,0.7,2.6,1.2c1.1,0.7,2.3,1.2,3.5,1.7
		C129.6,41.6,132.5,41.9,135.4,41.6z"/>
	<path class="st6" d="M124.7,38.5c0,0,1.4,0.4,3.6,1s5.5,1.2,6.8,1.8"/>
	
		<linearGradient id="SVGID_46_" gradientUnits="userSpaceOnUse" x1="-403.7672" y1="238.8522" x2="-413.7271" y2="233.7922" gradientTransform="matrix(-0.95 -0.31 0.31 -0.95 -330.01 135.28)">
		<stop  offset="0" style="stop-color:#FFE600"/>
		<stop  offset="0.15" style="stop-color:#FFD200"/>
		<stop  offset="0.42" style="stop-color:#FFCE02"/>
		<stop  offset="0.66" style="stop-color:#FDC408"/>
		<stop  offset="0.89" style="stop-color:#FBB213"/>
		<stop  offset="1" style="stop-color:#FAA61A"/>
	</linearGradient>
	<path class="st52" d="M135.4,41.6c0,0-1.8-4.5-3.6-6.5s-6.2-4.3-7.6-3.9c0,0,1,1.3,1.7,2.3c0.7,1.1,1.4,2.2,2.3,3.1
		C130.3,38.8,132.7,40.4,135.4,41.6z"/>
	<path class="st6" d="M127.5,33.7c0,0,1.1,1,2.6,2.7s4.3,3.7,5.1,4.8"/>
	<path class="st9" d="M134.2,41.1c-0.2,0.6,0.1,1.2,0.7,1.4c0.6,0.2,1.2-0.1,1.4-0.7c0.2-0.6-0.1-1.2-0.7-1.4c0,0,0,0,0,0
		C135,40.2,134.4,40.5,134.2,41.1z"/>
	
		<linearGradient id="SVGID_47_" gradientUnits="userSpaceOnUse" x1="-432.645" y1="281.071" x2="-443.805" y2="281.4409" gradientTransform="matrix(-0.89 -0.45 0.45 -0.89 -377.79 99.13)">
		<stop  offset="0" style="stop-color:#FFE600"/>
		<stop  offset="0.15" style="stop-color:#FFD200"/>
		<stop  offset="0.42" style="stop-color:#FFCE02"/>
		<stop  offset="0.66" style="stop-color:#FDC408"/>
		<stop  offset="0.89" style="stop-color:#FBB213"/>
		<stop  offset="1" style="stop-color:#FAA61A"/>
	</linearGradient>
	<path class="st53" d="M143.4,48.4c0,0-3.2-3.7-5.6-4.9s-7.3-2-8.5-1c0,0,1.4,0.9,2.4,1.6c1,0.8,2.1,1.6,3.2,2.2
		C137.7,47.5,140.5,48.2,143.4,48.4z"/>
	<path class="st6" d="M133.3,43.7c0,0,1.4,0.6,3.4,1.6s5.3,2,6.4,2.8"/>
	
		<linearGradient id="SVGID_48_" gradientUnits="userSpaceOnUse" x1="-433.9527" y1="286.3203" x2="-443.9127" y2="281.2603" gradientTransform="matrix(-0.89 -0.45 0.45 -0.89 -377.79 99.13)">
		<stop  offset="0" style="stop-color:#FFE600"/>
		<stop  offset="0.15" style="stop-color:#FFD200"/>
		<stop  offset="0.42" style="stop-color:#FFCE02"/>
		<stop  offset="0.66" style="stop-color:#FDC408"/>
		<stop  offset="0.89" style="stop-color:#FBB213"/>
		<stop  offset="1" style="stop-color:#FAA61A"/>
	</linearGradient>
	<path class="st54" d="M143.4,48.4c0,0-1.1-4.8-2.5-7s-5.4-5.2-6.9-5c0,0,0.8,1.5,1.3,2.6c0.5,1.2,1.1,2.4,1.8,3.5
		C138.8,44.8,141,46.8,143.4,48.4z"/>
	<path class="st6" d="M136.9,39.4c0,0,0.9,1.2,2.2,3s3.7,4.3,4.3,5.6"/>
	<path class="st9" d="M142.3,47.7c-0.3,0.5-0.1,1.2,0.5,1.5c0,0,0,0,0,0c0.5,0.4,1.2,0.3,1.6-0.2s0.3-1.2-0.2-1.6
		c-0.1-0.1-0.3-0.2-0.4-0.2C143.3,47,142.6,47.2,142.3,47.7z"/>
	
		<linearGradient id="SVGID_49_" gradientUnits="userSpaceOnUse" x1="-454.2572" y1="334.836" x2="-465.4172" y2="335.206" gradientTransform="matrix(-0.81 -0.59 0.59 -0.81 -424.53 53.02)">
		<stop  offset="0" style="stop-color:#FFE600"/>
		<stop  offset="0.15" style="stop-color:#FFD200"/>
		<stop  offset="0.42" style="stop-color:#FFCE02"/>
		<stop  offset="0.66" style="stop-color:#FDC408"/>
		<stop  offset="0.89" style="stop-color:#FBB213"/>
		<stop  offset="1" style="stop-color:#FAA61A"/>
	</linearGradient>
	<path class="st55" d="M150.3,56.4c0,0-2.6-4.1-4.7-5.7s-6.9-3.1-8.2-2.4c0,0,1.2,1.1,2.1,2c0.9,1,1.8,1.9,2.8,2.7
		C144.8,54.6,147.5,55.7,150.3,56.4z"/>
	<path class="st6" d="M141.1,50.2c0,0,1.2,0.8,3.1,2.1s4.9,2.8,5.9,3.8"/>
	
		<linearGradient id="SVGID_50_" gradientUnits="userSpaceOnUse" x1="-455.5765" y1="340.3712" x2="-465.5365" y2="335.3212" gradientTransform="matrix(-0.81 -0.59 0.59 -0.81 -424.53 53.02)">
		<stop  offset="0" style="stop-color:#FFE600"/>
		<stop  offset="0.15" style="stop-color:#FFD200"/>
		<stop  offset="0.42" style="stop-color:#FFCE02"/>
		<stop  offset="0.66" style="stop-color:#FDC408"/>
		<stop  offset="0.89" style="stop-color:#FBB213"/>
		<stop  offset="1" style="stop-color:#FAA61A"/>
	</linearGradient>
	<path class="st56" d="M150.3,56.4c0,0-0.3-4.8-1.4-7.3s-4.6-6-6-6c0,0,0.6,1.6,0.9,2.8c0.3,1.3,0.7,2.5,1.2,3.7
		C146.4,52.2,148.2,54.5,150.3,56.4z"/>
	<path class="st6" d="M145.2,46.5c0,0,0.7,1.3,1.7,3.3s2.9,4.8,3.4,6.2"/>
	<path class="st9" d="M149.3,55.5c-0.4,0.5-0.3,1.2,0.3,1.6c0.5,0.4,1.2,0.3,1.6-0.3c0.4-0.5,0.3-1.2-0.3-1.6c0,0,0,0,0,0
		C150.4,54.9,149.7,55,149.3,55.5C149.3,55.5,149.3,55.5,149.3,55.5z"/>
	
		<linearGradient id="SVGID_51_" gradientUnits="userSpaceOnUse" x1="-468.003" y1="390.4474" x2="-479.163" y2="390.8074" gradientTransform="matrix(-0.71 -0.71 0.71 -0.71 -461.93 2.2)">
		<stop  offset="0" style="stop-color:#FFE600"/>
		<stop  offset="0.15" style="stop-color:#FFD200"/>
		<stop  offset="0.42" style="stop-color:#FFCE02"/>
		<stop  offset="0.66" style="stop-color:#FDC408"/>
		<stop  offset="0.89" style="stop-color:#FBB213"/>
		<stop  offset="1" style="stop-color:#FAA61A"/>
	</linearGradient>
	<path class="st57" d="M155.9,65.4c0,0-1.9-4.5-3.8-6.4s-6.3-4.1-7.7-3.6c0,0,1,1.3,1.8,2.3c0.7,1.1,1.5,2.1,2.4,3.1
		C150.7,62.7,153.2,64.3,155.9,65.4z"/>
	<path class="st6" d="M147.7,57.7c0,0,1.1,1,2.7,2.6s4.4,3.6,5.3,4.7"/>
	
		<linearGradient id="SVGID_52_" gradientUnits="userSpaceOnUse" x1="-469.4468" y1="396.0158" x2="-479.4068" y2="390.9558" gradientTransform="matrix(-0.71 -0.71 0.71 -0.71 -461.93 2.2)">
		<stop  offset="0" style="stop-color:#FFE600"/>
		<stop  offset="0.15" style="stop-color:#FFD200"/>
		<stop  offset="0.42" style="stop-color:#FFCE02"/>
		<stop  offset="0.66" style="stop-color:#FDC408"/>
		<stop  offset="0.89" style="stop-color:#FBB213"/>
		<stop  offset="1" style="stop-color:#FAA61A"/>
	</linearGradient>
	<path class="st58" d="M155.9,65.4c0,0,0.5-4.8-0.2-7.4s-3.6-6.6-5-6.9c0,0,0.3,1.6,0.5,2.9c0.1,1.3,0.3,2.6,0.6,3.8
		C152.7,60.5,154.1,63.1,155.9,65.4z"/>
	<path class="st6" d="M152.4,54.7c0,0,0.5,1.4,1.1,3.6s2.1,5.2,2.4,6.6"/>
	<path class="st9" d="M155,64.3c-0.4,0.4-0.4,1.2,0,1.6c0.4,0.4,1.2,0.4,1.6,0c0.4-0.4,0.4-1.2,0-1.6
		C156.2,63.9,155.5,63.9,155,64.3C155,64.3,155,64.3,155,64.3z"/>
	
		<linearGradient id="SVGID_53_" gradientUnits="userSpaceOnUse" x1="-473.9785" y1="447.0467" x2="-485.1484" y2="447.4167" gradientTransform="matrix(-0.59 -0.81 0.81 -0.59 -488.64 -54.18)">
		<stop  offset="0" style="stop-color:#FFE600"/>
		<stop  offset="0.15" style="stop-color:#FFD200"/>
		<stop  offset="0.42" style="stop-color:#FFCE02"/>
		<stop  offset="0.66" style="stop-color:#FDC408"/>
		<stop  offset="0.89" style="stop-color:#FBB213"/>
		<stop  offset="1" style="stop-color:#FAA61A"/>
	</linearGradient>
	<path class="st59" d="M159.9,75.1c0,0-1.2-4.7-2.7-6.9s-5.6-5-7.1-4.8c0,0,0.8,1.4,1.4,2.5c0.5,1.2,1.1,2.3,1.9,3.4
		C155.2,71.6,157.4,73.6,159.9,75.1z"/>
	<path class="st6" d="M153.1,66.3c0,0,0.9,1.2,2.3,3s3.8,4.2,4.5,5.4"/>
	
		<linearGradient id="SVGID_54_" gradientUnits="userSpaceOnUse" x1="-475.3515" y1="452.4785" x2="-485.3116" y2="447.4286" gradientTransform="matrix(-0.59 -0.81 0.81 -0.59 -488.64 -54.18)">
		<stop  offset="0" style="stop-color:#FFE600"/>
		<stop  offset="0.15" style="stop-color:#FFD200"/>
		<stop  offset="0.42" style="stop-color:#FFCE02"/>
		<stop  offset="0.66" style="stop-color:#FDC408"/>
		<stop  offset="0.89" style="stop-color:#FBB213"/>
		<stop  offset="1" style="stop-color:#FAA61A"/>
	</linearGradient>
	<path class="st60" d="M159.9,75.1c0,0,1.2-4.7,0.9-7.3s-2.5-7.1-3.9-7.6c0,0,0,1.7,0,2.9c-0.1,1.3-0.1,2.6,0,3.9
		C157.4,69.8,158.4,72.5,159.9,75.1z"/>
	<path class="st6" d="M158.2,64c0,0,0.2,1.5,0.6,3.7s1.3,5.5,1.3,6.9"/>
	<path class="st9" d="M159.3,73.9c-0.5,0.4-0.6,1.1-0.3,1.6c0.4,0.5,1.1,0.6,1.6,0.3c0.5-0.4,0.6-1.1,0.3-1.6c0,0,0,0,0,0
		C160.5,73.7,159.8,73.5,159.3,73.9C159.3,73.9,159.3,73.9,159.3,73.9z"/>
	
		<linearGradient id="SVGID_55_" gradientUnits="userSpaceOnUse" x1="-473.0807" y1="504.3449" x2="-484.2507" y2="504.7049" gradientTransform="matrix(-0.45 -0.89 0.89 -0.45 -504.43 -118.57)">
		<stop  offset="0" style="stop-color:#FFE600"/>
		<stop  offset="0.15" style="stop-color:#FFD200"/>
		<stop  offset="0.42" style="stop-color:#FFCE02"/>
		<stop  offset="0.66" style="stop-color:#FDC408"/>
		<stop  offset="0.89" style="stop-color:#FBB213"/>
		<stop  offset="1" style="stop-color:#FAA61A"/>
	</linearGradient>
	<path class="st61" d="M162.5,85.3c0,0-0.4-4.8-1.6-7.2s-4.7-5.9-6.2-5.9c0,0,0.6,1.6,1,2.8c0.3,1.3,0.8,2.5,1.3,3.7
		C158.4,81.2,160.2,83.4,162.5,85.3z"/>
	<path class="st6" d="M157.1,75.5c0,0,0.7,1.3,1.8,3.3s3.1,4.7,3.6,6.1"/>
	
		<linearGradient id="SVGID_56_" gradientUnits="userSpaceOnUse" x1="-474.1453" y1="509.7664" x2="-484.1053" y2="504.7064" gradientTransform="matrix(-0.45 -0.89 0.89 -0.45 -504.43 -118.57)">
		<stop  offset="0" style="stop-color:#FFE600"/>
		<stop  offset="0.15" style="stop-color:#FFD200"/>
		<stop  offset="0.42" style="stop-color:#FFCE02"/>
		<stop  offset="0.66" style="stop-color:#FDC408"/>
		<stop  offset="0.89" style="stop-color:#FBB213"/>
		<stop  offset="1" style="stop-color:#FAA61A"/>
	</linearGradient>
	<path class="st62" d="M162.5,85.3c0,0,1.9-4.5,2-7.1s-1.3-7.4-2.6-8.1c0,0-0.2,1.6-0.4,2.9c-0.3,1.3-0.5,2.5-0.6,3.8
		C160.8,79.7,161.4,82.6,162.5,85.3z"/>
	<path class="st6" d="M162.4,74.1c0,0,0,1.5,0,3.7s0.4,5.6,0.2,7"/>
	<circle class="st9" cx="162.5" cy="85.1" r="1.1"/>
	
		<linearGradient id="SVGID_57_" gradientUnits="userSpaceOnUse" x1="-459.4095" y1="559.7164" x2="-470.5695" y2="560.0764" gradientTransform="matrix(-0.31 -0.95 0.95 -0.31 -514.38 -177.63)">
		<stop  offset="0" style="stop-color:#FFE600"/>
		<stop  offset="0.15" style="stop-color:#FFD200"/>
		<stop  offset="0.42" style="stop-color:#FFCE02"/>
		<stop  offset="0.66" style="stop-color:#FDC408"/>
		<stop  offset="0.89" style="stop-color:#FBB213"/>
		<stop  offset="1" style="stop-color:#FAA61A"/>
	</linearGradient>
	<path class="st63" d="M163.4,95.8c0,0,0.3-4.9-0.5-7.4s-3.8-6.5-5.2-6.7c0,0,0.4,1.6,0.6,2.9c0.1,1.3,0.4,2.6,0.7,3.8
		C159.9,91.1,161.4,93.6,163.4,95.8z"/>
	<path class="st6" d="M159.5,85.3c0,0,0.5,1.4,1.2,3.5s2.3,5.2,2.6,6.6"/>
	
		<linearGradient id="SVGID_58_" gradientUnits="userSpaceOnUse" x1="-460.6896" y1="565.0901" x2="-470.6496" y2="560.0301" gradientTransform="matrix(-0.31 -0.95 0.95 -0.31 -514.38 -177.63)">
		<stop  offset="0" style="stop-color:#FFE600"/>
		<stop  offset="0.15" style="stop-color:#FFD200"/>
		<stop  offset="0.42" style="stop-color:#FFCE02"/>
		<stop  offset="0.66" style="stop-color:#FDC408"/>
		<stop  offset="0.89" style="stop-color:#FBB213"/>
		<stop  offset="1" style="stop-color:#FAA61A"/>
	</linearGradient>
	<path class="st64" d="M163.4,95.8c0,0,2.6-4.1,3.1-6.7s-0.2-7.5-1.4-8.4c0,0-0.5,1.6-0.9,2.8c-0.5,1.2-0.9,2.4-1.2,3.7
		C162.6,90,162.7,92.9,163.4,95.8z"/>
	<path class="st6" d="M165.1,84.8c0,0-0.2,1.5-0.6,3.7s-0.5,5.6-0.9,7"/>
	<path class="st9" d="M163.1,94.5c-0.6,0.2-0.9,0.8-0.7,1.4s0.8,0.9,1.4,0.7c0.6-0.2,0.9-0.8,0.7-1.4
		C164.3,94.6,163.7,94.3,163.1,94.5C163.1,94.5,163.1,94.5,163.1,94.5z"/>
	
		<linearGradient id="SVGID_59_" gradientUnits="userSpaceOnUse" x1="-437.7832" y1="612.2458" x2="-448.9432" y2="612.6158" gradientTransform="matrix(-0.16 -0.99 0.99 -0.16 -515.55 -240.36)">
		<stop  offset="0" style="stop-color:#FFE600"/>
		<stop  offset="0.15" style="stop-color:#FFD200"/>
		<stop  offset="0.42" style="stop-color:#FFCE02"/>
		<stop  offset="0.66" style="stop-color:#FDC408"/>
		<stop  offset="0.89" style="stop-color:#FBB213"/>
		<stop  offset="1" style="stop-color:#FAA61A"/>
	</linearGradient>
	<path class="st65" d="M162.6,106.3c0,0,1.1-4.7,0.7-7.4s-2.7-7-4.1-7.5c0,0,0.1,1.7,0.1,2.9c-0.1,1.3,0,2.6,0.1,3.9
		C159.9,101.1,161,103.8,162.6,106.3z"/>
	<path class="st6" d="M160.5,95.3c0,0,0.3,1.5,0.7,3.7s1.5,5.5,1.5,6.9"/>
	
		<linearGradient id="SVGID_60_" gradientUnits="userSpaceOnUse" x1="-439.2676" y1="617.6835" x2="-449.2276" y2="612.6335" gradientTransform="matrix(-0.16 -0.99 0.99 -0.16 -515.55 -240.36)">
		<stop  offset="0" style="stop-color:#FFE600"/>
		<stop  offset="0.15" style="stop-color:#FFD200"/>
		<stop  offset="0.42" style="stop-color:#FFCE02"/>
		<stop  offset="0.66" style="stop-color:#FDC408"/>
		<stop  offset="0.89" style="stop-color:#FBB213"/>
		<stop  offset="1" style="stop-color:#FAA61A"/>
	</linearGradient>
	<path class="st66" d="M162.6,106.3c0,0,3.2-3.6,4.1-6.1s1-7.5,0-8.5c0,0-0.7,1.5-1.3,2.6c-0.7,1.1-1.3,2.2-1.8,3.4
		C162.8,100.5,162.4,103.4,162.6,106.3z"/>
	<path class="st6" d="M166,95.7c0,0-0.4,1.4-1.2,3.5s-1.3,5.5-2,6.8"/>
	<path class="st9" d="M162.5,105c-0.6,0.1-1,0.7-0.9,1.3c0.1,0.6,0.7,1,1.3,0.9c0.6-0.1,1-0.7,0.9-1.3
		C163.7,105.3,163.1,104.9,162.5,105C162.5,105,162.5,105,162.5,105z"/>
	
		<linearGradient id="SVGID_61_" gradientUnits="userSpaceOnUse" x1="-409.2641" y1="662.3622" x2="-420.4341" y2="662.7222" gradientTransform="matrix(0 -1 1 0 -502.34 -303.94)">
		<stop  offset="0" style="stop-color:#FFE600"/>
		<stop  offset="0.15" style="stop-color:#FFD200"/>
		<stop  offset="0.42" style="stop-color:#FFCE02"/>
		<stop  offset="0.66" style="stop-color:#FDC408"/>
		<stop  offset="0.89" style="stop-color:#FBB213"/>
		<stop  offset="1" style="stop-color:#FAA61A"/>
	</linearGradient>
	<path class="st67" d="M160.2,116.6c0,0,1.8-4.5,1.8-7.2s-1.6-7.4-2.9-8c0,0-0.2,1.7-0.4,2.9c-0.3,1.3-0.4,2.5-0.5,3.8
		C158.4,111,159.1,113.9,160.2,116.6z"/>
	<path class="st6" d="M159.8,105.4c0,0,0.1,1.5,0.1,3.7s0.6,5.6,0.4,7"/>
	
		<linearGradient id="SVGID_62_" gradientUnits="userSpaceOnUse" x1="-410.5077" y1="667.7673" x2="-420.4677" y2="662.7073" gradientTransform="matrix(0 -1 1 0 -502.34 -303.94)">
		<stop  offset="0" style="stop-color:#FFE600"/>
		<stop  offset="0.15" style="stop-color:#FFD200"/>
		<stop  offset="0.42" style="stop-color:#FFCE02"/>
		<stop  offset="0.66" style="stop-color:#FDC408"/>
		<stop  offset="0.89" style="stop-color:#FBB213"/>
		<stop  offset="1" style="stop-color:#FAA61A"/>
	</linearGradient>
	<path class="st68" d="M160.2,116.6c0,0,3.8-3.1,5-5.4s2.2-7.2,1.3-8.4c0,0-0.9,1.4-1.7,2.4c-0.9,1-1.6,2-2.3,3.1
		C161.3,110.8,160.5,113.7,160.2,116.6z"/>
	<path class="st6" d="M165.2,106.6c0,0-0.7,1.3-1.7,3.3s-2.2,5.2-3,6.4"/>
	<path class="st9" d="M160.3,115.2c-0.6,0-1.1,0.5-1.1,1.1s0.5,1.1,1.1,1.1s1.1-0.5,1.1-1.1l0,0
		C161.4,115.7,160.9,115.2,160.3,115.2C160.3,115.2,160.3,115.2,160.3,115.2z"/>
	
		<linearGradient id="SVGID_63_" gradientUnits="userSpaceOnUse" x1="-373.9051" y1="704.9288" x2="-385.0751" y2="705.2988" gradientTransform="matrix(0.15 -0.99 0.99 0.15 -484.03 -360.6)">
		<stop  offset="0" style="stop-color:#FFE600"/>
		<stop  offset="0.15" style="stop-color:#FFD200"/>
		<stop  offset="0.42" style="stop-color:#FFCE02"/>
		<stop  offset="0.66" style="stop-color:#FDC408"/>
		<stop  offset="0.89" style="stop-color:#FBB213"/>
		<stop  offset="1" style="stop-color:#FAA61A"/>
	</linearGradient>
	<path class="st69" d="M156.2,126.3c0,0,2.5-4.2,2.9-6.8s-0.4-7.5-1.6-8.4c0,0-0.4,1.6-0.8,2.8c-0.5,1.2-0.8,2.4-1.1,3.7
		C155.3,120.5,155.5,123.5,156.2,126.3z"/>
	<path class="st6" d="M157.6,115.2c0,0-0.2,1.5-0.5,3.7s-0.3,5.6-0.7,7"/>
	
		<linearGradient id="SVGID_64_" gradientUnits="userSpaceOnUse" x1="-375.4345" y1="710.1822" x2="-385.3945" y2="705.1222" gradientTransform="matrix(0.15 -0.99 0.99 0.15 -484.03 -360.6)">
		<stop  offset="0" style="stop-color:#FFE600"/>
		<stop  offset="0.15" style="stop-color:#FFD200"/>
		<stop  offset="0.42" style="stop-color:#FFCE02"/>
		<stop  offset="0.66" style="stop-color:#FDC408"/>
		<stop  offset="0.89" style="stop-color:#FBB213"/>
		<stop  offset="1" style="stop-color:#FAA61A"/>
	</linearGradient>
	<path class="st70" d="M156.2,126.3c0,0,4.2-2.5,5.8-4.6s3.3-6.8,2.6-8.1c0,0-1.1,1.2-2.1,2.1c-1,0.8-1.9,1.7-2.7,2.7
		C158.2,120.8,157,123.5,156.2,126.3z"/>
	<path class="st6" d="M162.8,117.3c0,0-0.9,1.2-2.2,3c-1.3,1.8-3,4.8-4,5.8"/>
	<path class="st9" d="M156.5,125c-0.6-0.1-1.2,0.3-1.3,0.9c-0.1,0.6,0.3,1.2,0.9,1.3c0.6,0.1,1.2-0.3,1.3-0.9c0,0,0,0,0,0
		C157.6,125.7,157.2,125.1,156.5,125z"/>
	
		<linearGradient id="SVGID_65_" gradientUnits="userSpaceOnUse" x1="-329.8075" y1="745.0946" x2="-340.9675" y2="745.4646" gradientTransform="matrix(0.31 -0.95 0.95 0.31 -451.53 -419.68)">
		<stop  offset="0" style="stop-color:#FFE600"/>
		<stop  offset="0.15" style="stop-color:#FFD200"/>
		<stop  offset="0.42" style="stop-color:#FFCE02"/>
		<stop  offset="0.66" style="stop-color:#FDC408"/>
		<stop  offset="0.89" style="stop-color:#FBB213"/>
		<stop  offset="1" style="stop-color:#FAA61A"/>
	</linearGradient>
	<path class="st71" d="M150.8,135.3c0,0,3.1-3.7,3.9-6.3s0.8-7.5-0.3-8.5c0,0-0.7,1.5-1.2,2.6c-0.7,1.1-1.2,2.3-1.6,3.5
		C150.8,129.5,150.5,132.4,150.8,135.3z"/>
	<path class="st6" d="M153.8,124.6c0,0-0.4,1.4-1,3.6s-1.1,5.5-1.8,6.8"/>
	
		<linearGradient id="SVGID_66_" gradientUnits="userSpaceOnUse" x1="-330.9924" y1="750.5723" x2="-340.9424" y2="745.5123" gradientTransform="matrix(0.31 -0.95 0.95 0.31 -451.53 -419.68)">
		<stop  offset="0" style="stop-color:#FFE600"/>
		<stop  offset="0.15" style="stop-color:#FFD200"/>
		<stop  offset="0.42" style="stop-color:#FFCE02"/>
		<stop  offset="0.66" style="stop-color:#FDC408"/>
		<stop  offset="0.89" style="stop-color:#FBB213"/>
		<stop  offset="1" style="stop-color:#FAA61A"/>
	</linearGradient>
	<path class="st72" d="M150.8,135.3c0,0,4.5-1.8,6.5-3.6s4.3-6.2,3.9-7.6c0,0-1.3,1-2.4,1.7c-1.1,0.7-2.2,1.4-3.1,2.3
		C153.6,130.2,151.9,132.7,150.8,135.3z"/>
	<path class="st6" d="M158.6,127.4c0,0-1,1.1-2.6,2.6s-3.7,4.3-4.9,5.1"/>
	<path class="st9" d="M151.3,134.1c-0.6-0.2-1.2,0.1-1.4,0.7s0.1,1.2,0.7,1.4l0,0c0.6,0.2,1.2-0.1,1.4-0.7
		C152.2,134.9,151.9,134.3,151.3,134.1C151.3,134.1,151.3,134.1,151.3,134.1z"/>
	
		<linearGradient id="SVGID_67_" gradientUnits="userSpaceOnUse" x1="-283.5436" y1="775.2069" x2="-294.7036" y2="775.5769" gradientTransform="matrix(0.45 -0.89 0.89 0.45 -413.62 -467.58)">
		<stop  offset="0" style="stop-color:#FFE600"/>
		<stop  offset="0.15" style="stop-color:#FFD200"/>
		<stop  offset="0.42" style="stop-color:#FFCE02"/>
		<stop  offset="0.66" style="stop-color:#FDC408"/>
		<stop  offset="0.89" style="stop-color:#FBB213"/>
		<stop  offset="1" style="stop-color:#FAA61A"/>
	</linearGradient>
	<path class="st73" d="M144,143.4c0,0,3.7-3.2,4.9-5.6s1.9-7.3,1-8.5c0,0-0.9,1.4-1.6,2.4c-0.8,1-1.6,2.1-2.2,3.2
		C144.9,137.6,144.2,140.5,144,143.4z"/>
	<path class="st6" d="M148.7,133.2c0,0-0.6,1.4-1.6,3.4s-2,5.3-2.8,6.4"/>
	
		<linearGradient id="SVGID_68_" gradientUnits="userSpaceOnUse" x1="-284.8112" y1="780.5255" x2="-294.7712" y2="775.4655" gradientTransform="matrix(0.45 -0.89 0.89 0.45 -413.62 -467.58)">
		<stop  offset="0" style="stop-color:#FFE600"/>
		<stop  offset="0.15" style="stop-color:#FFD200"/>
		<stop  offset="0.42" style="stop-color:#FFCE02"/>
		<stop  offset="0.66" style="stop-color:#FDC408"/>
		<stop  offset="0.89" style="stop-color:#FBB213"/>
		<stop  offset="1" style="stop-color:#FAA61A"/>
	</linearGradient>
	<path class="st74" d="M144,143.4c0,0,4.8-1,7-2.5s5.2-5.4,5-6.9c0,0-1.5,0.8-2.6,1.4c-1.2,0.5-2.4,1.1-3.4,1.8
		C147.6,138.8,145.6,140.9,144,143.4z"/>
	<path class="st6" d="M153,136.8c0,0-1.2,0.9-3,2.2s-4.3,3.7-5.6,4.3"/>
	<path class="st9" d="M144.7,142.2c-0.6-0.3-1.2-0.1-1.5,0.5s-0.1,1.2,0.5,1.5c0.6,0.3,1.2,0.1,1.5-0.5c0,0,0,0,0,0
		C145.5,143.2,145.2,142.5,144.7,142.2z"/>
	
		<linearGradient id="SVGID_69_" gradientUnits="userSpaceOnUse" x1="-228.6405" y1="796.5723" x2="-239.8005" y2="796.9423" gradientTransform="matrix(0.59 -0.81 0.81 0.59 -367.73 -514.33)">
		<stop  offset="0" style="stop-color:#FFE600"/>
		<stop  offset="0.15" style="stop-color:#FFD200"/>
		<stop  offset="0.42" style="stop-color:#FFCE02"/>
		<stop  offset="0.66" style="stop-color:#FDC408"/>
		<stop  offset="0.89" style="stop-color:#FBB213"/>
		<stop  offset="1" style="stop-color:#FAA61A"/>
	</linearGradient>
	<path class="st75" d="M136,150.3c0,0,4.1-2.6,5.7-4.8s3.1-6.9,2.4-8.2c0,0-1.1,1.2-2,2.1c-1,0.9-1.9,1.8-2.6,2.8
		C137.8,144.7,136.6,147.4,136,150.3z"/>
	<path class="st6" d="M142.2,141c0,0-0.8,1.2-2.1,3.1s-2.8,4.9-3.8,5.9"/>
	
		<linearGradient id="SVGID_70_" gradientUnits="userSpaceOnUse" x1="-229.9065" y1="802.1623" x2="-239.8665" y2="797.1023" gradientTransform="matrix(0.59 -0.81 0.81 0.59 -367.73 -514.33)">
		<stop  offset="0" style="stop-color:#FFE600"/>
		<stop  offset="0.15" style="stop-color:#FFD200"/>
		<stop  offset="0.42" style="stop-color:#FFCE02"/>
		<stop  offset="0.66" style="stop-color:#FDC408"/>
		<stop  offset="0.89" style="stop-color:#FBB213"/>
		<stop  offset="1" style="stop-color:#FAA61A"/>
	</linearGradient>
	<path class="st76" d="M136,150.3c0,0,4.9-0.3,7.3-1.4s6-4.6,6-6.1c0,0-1.6,0.6-2.8,0.9c-1.3,0.3-2.5,0.7-3.7,1.2
		C140.2,146.3,137.9,148.1,136,150.3z"/>
	<path class="st6" d="M145.9,145.2c0,0-1.3,0.7-3.3,1.7s-4.8,2.9-6.2,3.4"/>
	<path class="st9" d="M136.9,149.2c-0.5-0.4-1.2-0.2-1.6,0.3c-0.4,0.5-0.3,1.2,0.3,1.6s1.2,0.3,1.6-0.3S137.4,149.6,136.9,149.2
		C136.9,149.3,136.9,149.3,136.9,149.2z"/>
	
		<linearGradient id="SVGID_71_" gradientUnits="userSpaceOnUse" x1="-173.5421" y1="811.1123" x2="-184.7021" y2="811.4823" gradientTransform="matrix(0.71 -0.71 0.71 0.71 -317.52 -551.66)">
		<stop  offset="0" style="stop-color:#FFE600"/>
		<stop  offset="0.15" style="stop-color:#FFD200"/>
		<stop  offset="0.42" style="stop-color:#FFCE02"/>
		<stop  offset="0.66" style="stop-color:#FDC408"/>
		<stop  offset="0.89" style="stop-color:#FBB213"/>
		<stop  offset="1" style="stop-color:#FAA61A"/>
	</linearGradient>
	<path class="st77" d="M127.1,155.8c0,0,4.5-1.9,6.4-3.8s4.1-6.3,3.6-7.8c0,0-1.3,1.1-2.3,1.8c-1.1,0.7-2.1,1.5-3.1,2.4
		C129.7,150.6,128.1,153.1,127.1,155.8z"/>
	<path class="st6" d="M134.7,147.7c0,0-1,1.1-2.6,2.7s-3.5,4.4-4.7,5.3"/>
	
		<linearGradient id="SVGID_72_" gradientUnits="userSpaceOnUse" x1="-174.9264" y1="816.7361" x2="-184.8864" y2="811.6761" gradientTransform="matrix(0.71 -0.71 0.71 0.71 -317.52 -551.66)">
		<stop  offset="0" style="stop-color:#FFE600"/>
		<stop  offset="0.15" style="stop-color:#FFD200"/>
		<stop  offset="0.42" style="stop-color:#FFCE02"/>
		<stop  offset="0.66" style="stop-color:#FDC408"/>
		<stop  offset="0.89" style="stop-color:#FBB213"/>
		<stop  offset="1" style="stop-color:#FAA61A"/>
	</linearGradient>
	<path class="st78" d="M127.1,155.8c0,0,4.8,0.5,7.4-0.3s6.6-3.6,6.9-5c0,0-1.6,0.3-2.9,0.5c-1.3,0.1-2.6,0.3-3.8,0.6
		C131.9,152.6,129.3,154,127.1,155.8z"/>
	<path class="st6" d="M137.7,152.3c0,0-1.4,0.5-3.6,1.1s-5.2,2.2-6.6,2.4"/>
	<path class="st9" d="M128.1,155c-0.4-0.4-1.2-0.4-1.6,0c-0.4,0.4-0.4,1.2,0,1.6c0.4,0.4,1.2,0.4,1.6,0c0,0,0,0,0,0
		C128.5,156.1,128.5,155.4,128.1,155z"/>
	
		<linearGradient id="SVGID_73_" gradientUnits="userSpaceOnUse" x1="-117.5408" y1="817.3038" x2="-128.7008" y2="817.6638" gradientTransform="matrix(0.81 -0.59 0.59 0.81 -260.52 -578.31)">
		<stop  offset="0" style="stop-color:#FFE600"/>
		<stop  offset="0.15" style="stop-color:#FFD200"/>
		<stop  offset="0.42" style="stop-color:#FFCE02"/>
		<stop  offset="0.66" style="stop-color:#FDC408"/>
		<stop  offset="0.89" style="stop-color:#FBB213"/>
		<stop  offset="1" style="stop-color:#FAA61A"/>
	</linearGradient>
	<path class="st79" d="M117.4,159.9c0,0,4.7-1.2,6.9-2.8s5-5.6,4.8-7.1c0,0-1.4,0.8-2.6,1.4c-1.2,0.5-2.3,1.1-3.4,1.9
		C120.8,155.2,118.9,157.4,117.4,159.9z"/>
	<path class="st6" d="M126.1,153c0,0-1.2,0.9-2.9,2.3s-4.2,3.8-5.4,4.5"/>
	
		<linearGradient id="SVGID_74_" gradientUnits="userSpaceOnUse" x1="-118.8875" y1="822.7946" x2="-128.8374" y2="817.7346" gradientTransform="matrix(0.81 -0.59 0.59 0.81 -260.52 -578.31)">
		<stop  offset="0" style="stop-color:#FFE600"/>
		<stop  offset="0.15" style="stop-color:#FFD200"/>
		<stop  offset="0.42" style="stop-color:#FFCE02"/>
		<stop  offset="0.66" style="stop-color:#FDC408"/>
		<stop  offset="0.89" style="stop-color:#FBB213"/>
		<stop  offset="1" style="stop-color:#FAA61A"/>
	</linearGradient>
	<path class="st80" d="M117.4,159.9c0,0,4.7,1.2,7.4,0.9s7.1-2.5,7.6-3.9c0,0-1.7,0-2.9,0c-1.3-0.1-2.6-0.1-3.9,0
		C122.6,157.4,119.9,158.4,117.4,159.9z"/>
	<path class="st6" d="M128.4,158.1c0,0-1.5,0.2-3.7,0.6s-5.5,1.3-6.9,1.3"/>
	<path class="st9" d="M118.5,159.2c-0.3-0.5-1-0.7-1.6-0.3c-0.5,0.3-0.7,1-0.3,1.6c0,0,0,0.1,0.1,0.1c0.4,0.5,1.1,0.6,1.6,0.3
		c0,0,0,0,0,0C118.8,160.4,118.9,159.7,118.5,159.2z"/>
	
		<linearGradient id="SVGID_75_" gradientUnits="userSpaceOnUse" x1="-61.9651" y1="814.4344" x2="-73.1251" y2="814.8045" gradientTransform="matrix(0.89 -0.46 0.46 0.89 -202.45 -596.18)">
		<stop  offset="0" style="stop-color:#FFE600"/>
		<stop  offset="0.15" style="stop-color:#FFD200"/>
		<stop  offset="0.42" style="stop-color:#FFCE02"/>
		<stop  offset="0.66" style="stop-color:#FDC408"/>
		<stop  offset="0.89" style="stop-color:#FBB213"/>
		<stop  offset="1" style="stop-color:#FAA61A"/>
	</linearGradient>
	<path class="st81" d="M107.1,162.4c0,0,4.9-0.4,7.2-1.6s5.9-4.8,5.8-6.2c0,0-1.6,0.6-2.7,1c-1.3,0.3-2.5,0.8-3.6,1.3
		C111.3,158.3,109,160.2,107.1,162.4z"/>
	<path class="st6" d="M116.9,157c0,0-1.3,0.7-3.3,1.8s-4.7,3.1-6.1,3.6"/>
	
		<linearGradient id="SVGID_76_" gradientUnits="userSpaceOnUse" x1="-63.4469" y1="819.7358" x2="-73.3969" y2="814.6758" gradientTransform="matrix(0.89 -0.46 0.46 0.89 -202.45 -596.18)">
		<stop  offset="0" style="stop-color:#FFE600"/>
		<stop  offset="0.15" style="stop-color:#FFD200"/>
		<stop  offset="0.42" style="stop-color:#FFCE02"/>
		<stop  offset="0.66" style="stop-color:#FDC408"/>
		<stop  offset="0.89" style="stop-color:#FBB213"/>
		<stop  offset="1" style="stop-color:#FAA61A"/>
	</linearGradient>
	<path class="st82" d="M107.1,162.4c0,0,4.5,1.9,7.1,2s7.4-1.3,8.1-2.7c0,0-1.6-0.2-2.9-0.4c-1.3-0.3-2.5-0.5-3.8-0.6
		C112.7,160.8,109.8,161.4,107.1,162.4z"/>
	<path class="st6" d="M118.3,162.4c0,0-1.5,0-3.7,0s-5.6,0.4-7,0.2"/>
	<circle class="st9" cx="107.3" cy="162.5" r="1.1"/>
	
		<linearGradient id="SVGID_77_" gradientUnits="userSpaceOnUse" x1="-4.8661" y1="802.503" x2="-16.0361" y2="802.873" gradientTransform="matrix(0.95 -0.31 0.31 0.95 -136.98 -604.16)">
		<stop  offset="0" style="stop-color:#FFE600"/>
		<stop  offset="0.15" style="stop-color:#FFD200"/>
		<stop  offset="0.42" style="stop-color:#FFCE02"/>
		<stop  offset="0.66" style="stop-color:#FDC408"/>
		<stop  offset="0.89" style="stop-color:#FBB213"/>
		<stop  offset="1" style="stop-color:#FAA61A"/>
	</linearGradient>
	<path class="st83" d="M96.6,163.3c0,0,4.9,0.3,7.4-0.5c2.5-0.8,6.5-3.8,6.7-5.3c0,0-1.6,0.4-2.9,0.6c-1.3,0.1-2.6,0.4-3.8,0.7
		C101.3,159.9,98.8,161.4,96.6,163.3z"/>
	<path class="st6" d="M107.1,159.5c0,0-1.4,0.5-3.5,1.3c-2.1,0.8-5.2,2.3-6.6,2.6"/>
	
		<linearGradient id="SVGID_78_" gradientUnits="userSpaceOnUse" x1="-6.1017" y1="807.9311" x2="-16.0717" y2="802.8711" gradientTransform="matrix(0.95 -0.31 0.31 0.95 -136.98 -604.16)">
		<stop  offset="0" style="stop-color:#FFE600"/>
		<stop  offset="0.15" style="stop-color:#FFD200"/>
		<stop  offset="0.42" style="stop-color:#FFCE02"/>
		<stop  offset="0.66" style="stop-color:#FDC408"/>
		<stop  offset="0.89" style="stop-color:#FBB213"/>
		<stop  offset="1" style="stop-color:#FAA61A"/>
	</linearGradient>
	<path class="st84" d="M96.6,163.3c0,0,4.1,2.6,6.7,3.1s7.5-0.2,8.4-1.4c0,0-1.6-0.5-2.8-0.9c-1.2-0.5-2.4-0.9-3.7-1.2
		C102.4,162.6,99.5,162.7,96.6,163.3z"/>
	<path class="st6" d="M107.7,165.1c0,0-1.5-0.2-3.7-0.6c-2.2-0.4-5.6-0.4-7-0.9"/>
	<path class="st9" d="M97.9,163.1c-0.2-0.6-0.8-0.9-1.4-0.7c-0.6,0.2-0.9,0.8-0.7,1.4c0.2,0.6,0.8,0.9,1.4,0.7c0,0,0,0,0,0
		C97.8,164.3,98.1,163.6,97.9,163.1z"/>
	<path class="st85" d="M104.9,178.4c0.9,0,1.7-0.1,2.5-0.4c0,0,0,2,0,3.2s-0.6,1.5-1.1,1.5s-2.5-0.1-2.5-0.1v-4.5L104.9,178.4z"/>
	<path class="st86" d="M106.3,158.4c-0.6-3.6,0.8-4.4,1.3-4.4s1.3,0.9,1.3,2.8s-0.7,5.6-1.9,11.5s-2.1,9.1-2,11.2
		c0.1,2.1,0.8,3.1,1.4,3.2c0,0-4.3-0.1-8.7-0.3c-4.5-0.2-12.9-0.3-13.9-0.3s-2-1.8-2-4.7s1.3-10,2-13.4c0.4-1.9,0.6-3.8,0.7-5.8
		c0,0,2.8-0.3,5.7-0.4s9-0.1,11.7,0.1C104.6,158.2,106.3,158.4,106.3,158.4z"/>
	<path class="st85" d="M115.7,153.3"/>
	<path class="st87" d="M84.4,158.2c0,0,2.8-0.3,5.7-0.4s9-0.1,11.7,0.1c2.7,0.2,4.6,0.5,4.6,0.5c-0.6-3.6,0.8-4.4,1.3-4.4
		c-0.6-0.2-1.3-0.3-2-0.2c-1.3,0.1-3.7,0.1-5.8,0.2c-2.1,0.1-4.9,0.1-7.3,0c-2.5-0.1-7.8-0.6-8.4-0.8c-0.6,0.4-0.9,1-1.1,1.6
		c-0.2,1.2,0,2.4,0.4,3.5C83.7,158.3,84,158.2,84.4,158.2z"/>
	<path class="st88" d="M104.9,178.4c0.9,0,1.7-0.1,2.5-0.4c0,0,0,2,0,3.2s-0.6,1.5-1.1,1.5s-2.5-0.1-2.5-0.1v-4.5L104.9,178.4z"/>
	
		<radialGradient id="SVGID_79_" cx="102.96" cy="18.34" r="15.16" gradientTransform="matrix(1 0 0 -1 -11.09 187.2)" gradientUnits="userSpaceOnUse">
		<stop  offset="0" style="stop-color:#F6F3F0"/>
		<stop  offset="0.2" style="stop-color:#F4F1EC"/>
		<stop  offset="0.41" style="stop-color:#EEEADF"/>
		<stop  offset="0.62" style="stop-color:#E3DECB"/>
		<stop  offset="0.83" style="stop-color:#D5CDAE"/>
		<stop  offset="1" style="stop-color:#C6BD91"/>
	</radialGradient>
	<path class="st89" d="M106.3,158.4c-0.6-3.6,0.8-4.4,1.3-4.4s1.3,0.9,1.3,2.8s-0.7,5.6-1.9,11.5s-2.1,9.1-2,11.2
		c0.1,2.1,0.8,3.1,1.4,3.2c0,0-4.3-0.1-8.7-0.3c-4.5-0.2-12.9-0.3-13.9-0.3s-2-1.8-2-4.7s1.3-10,2-13.4c0.4-1.9,0.6-3.8,0.7-5.8
		c0,0,2.8-0.3,5.7-0.4s9-0.1,11.7,0.1C104.6,158.2,106.3,158.4,106.3,158.4z"/>
	
		<radialGradient id="SVGID_80_" cx="102.45" cy="31.24" r="14.98" gradientTransform="matrix(1 0 0 -1 -11.09 187.2)" gradientUnits="userSpaceOnUse">
		<stop  offset="0" style="stop-color:#F6F3F0"/>
		<stop  offset="1" style="stop-color:#C6BD91"/>
	</radialGradient>
	<path class="st90" d="M84.4,158.2c0,0,2.8-0.3,5.7-0.4s9-0.1,11.7,0.1c2.7,0.2,4.6,0.5,4.6,0.5c-0.6-3.6,0.8-4.4,1.3-4.4
		c-0.6-0.2-1.3-0.3-2-0.2c-1.3,0.1-3.7,0.1-5.8,0.2c-2.1,0.1-4.9,0.1-7.3,0c-2.5-0.1-7.8-0.6-8.4-0.8c-0.6,0.4-0.9,1-1.1,1.6
		c-0.2,1.2,0,2.4,0.4,3.5C83.7,158.3,84,158.2,84.4,158.2z"/>
	
		<linearGradient id="SVGID_81_" gradientUnits="userSpaceOnUse" x1="-383.2586" y1="24.138" x2="-365.0286" y2="11.038" gradientTransform="matrix(-1 0 0 -1 -267.42 187.2)">
		<stop  offset="0" style="stop-color:#FFFFFF"/>
		<stop  offset="1" style="stop-color:#B6B8BA"/>
	</linearGradient>
	<path class="st91" d="M93,176c3.3-2.5,7.4-5.5,9.9-7.1c4.9-3.2,16.4-10.5,16.9-10.8s0.9,0.2,0.8,0.9c-0.1,0.8-0.3,1.6-0.7,2.3
		c-0.4,0.5-1,0.8-1.7,0.8c0.8,0.1,0.9,0.3,0.5,0.8c-0.3,0.5-0.9,0.7-1.4,0.7c-0.6,0-1.7,0.1-1.7,0.1c1.4,0.3,2,0.6,1.6,0.9
		s-1.6,1.3-2.3,2c-0.7,0.7-1.4,1.3-2.3,1.9c-0.6,0.4-1.2,0.7-1.9,0.8c0.5,0.1,0.7,0.4,0.3,0.8c-0.5,0.6-1.1,1-1.8,1.3
		c-1,0.2-2,0.3-3.1,0.3c0.8,0.1,1.3,0.8,1,1c-0.3,0.2-1.7,1.3-2.2,1.7c-0.5,0.4-1.1,0.6-1.7,0.9c-0.5,0.2-1.1,0-1.8-0.6
		c0.6,0.7,0.7,1,0.2,1.3c-0.4,0.2-0.8,0.4-1.2,0.7c-0.2,0.2-0.6,0.5-0.8,0.5c-0.2-0.1-0.4-0.6-0.9-1c-0.6-0.4-1.3-0.6-2-0.6
		c-0.7,0-1.5,0.1-2.2,0.3L93,176z"/>
	<path class="st92" d="M96.2,174.4c0.7-0.1,1.5-0.1,2.2,0c0.5,0.2,1,0.6,1.4,0.9"/>
	<path class="st92" d="M96,174.2c0.7-0.3,1.4-0.4,2.2-0.4c0.6,0.1,1.1,0.4,1.6,0.6"/>
	<path class="st93" d="M102.5,173.8c-0.5-0.3-1.1-0.5-1.6-0.6c-1-0.1-2-0.1-3-0.1"/>
	<path class="st92" d="M104.2,172.6c-0.5-0.3-1.1-0.5-1.7-0.5c-1.2-0.1-3.2-0.1-3.2-0.1"/>
	<path class="st94" d="M100.7,171c0,0,1.3,0.2,2.8,0.3c1.4,0.1,2,0.1,2.8,0.1"/>
	<path class="st94" d="M107.3,170.2c-0.8,0.1-1.7,0.1-2.6,0c-0.7-0.1-1.3-0.3-2-0.6"/>
	<path class="st94" d="M103.9,168.6c0.9,0.2,1.8,0.3,2.8,0.4c1.3,0.1,2.7,0.2,4.1,0.1"/>
	<path class="st94" d="M106.7,166.7c0.9,0.2,1.8,0.3,2.7,0.4l3.3,0.3"/>
	<path class="st92" d="M111.6,165.9c0,0-2.8-0.2-3.6-0.2"/>
	<path class="st92" d="M109.5,164.7c0,0,1.5-0.2,2.9-0.2c0.9,0,1.8,0.1,2.7,0.4"/>
	<path class="st94" d="M111.1,163.6c0.7-0.1,1.3-0.1,2-0.1c1.4,0,2.5,0.1,2.5,0.1"/>
	<path class="st94" d="M113.1,162.3c1-0.2,2-0.3,3-0.4c1.3,0,2.2,0,2.2,0"/>
	<path class="st92" d="M114.9,161.2c0,0,2.1-0.1,3.1-0.1"/>
	<path class="st92" d="M116.4,160.2c0,0,2.3-0.1,2.9-0.1"/>
	<path class="st95" d="M110.7,163.9c-2.9,1.9-5.8,3.7-7.8,5c-4.9,3.2-15,11-15,11l2.2-0.5c0.7-0.1,1.3-0.3,2-0.3
		c0.5-1,1.2-1.9,2.1-2.6c1.7-1.4,6.6-5.3,8.5-6.8C104.7,168.2,110.7,163.9,110.7,163.9z"/>
	<line class="st94" x1="101.6" y1="174.4" x2="101.5" y2="174.2"/>
	
		<linearGradient id="SVGID_82_" gradientUnits="userSpaceOnUse" x1="85.6499" y1="24.1498" x2="103.8699" y2="11.0498" gradientTransform="matrix(1 0 0 -1 -11.09 187.2)">
		<stop  offset="0" style="stop-color:#FFFFFF"/>
		<stop  offset="1" style="stop-color:#B6B8BA"/>
	</linearGradient>
	<path class="st96" d="M97.4,176c-3.3-2.5-7.4-5.5-9.9-7.1c-4.9-3.2-16.4-10.5-16.9-10.8c-0.5-0.3-0.9,0.2-0.8,0.9
		c0.1,0.8,0.3,1.6,0.8,2.3c0.4,0.5,1,0.8,1.7,0.8c-0.8,0.1-0.9,0.3-0.5,0.8c0.3,0.5,0.9,0.7,1.4,0.7c0.6,0,1.7,0.1,1.7,0.1
		c-1.4,0.3-2,0.6-1.6,0.9s1.6,1.3,2.3,2c0.7,0.7,1.4,1.3,2.3,1.9c0.6,0.4,1.2,0.7,1.9,0.8c-0.5,0.1-0.7,0.4-0.3,0.8
		c0.5,0.6,1.1,1,1.8,1.3c1,0.2,2,0.3,3.1,0.3c-0.8,0.1-1.3,0.8-1,1s1.7,1.3,2.2,1.7c0.5,0.4,1.1,0.6,1.7,0.9c0.5,0.2,1.1,0,1.8-0.6
		c-0.6,0.7-0.7,1-0.2,1.3c0.4,0.2,0.8,0.4,1.2,0.7c0.2,0.2,0.6,0.5,0.8,0.5s0.4-0.6,0.9-1c0.6-0.4,1.3-0.6,2-0.6
		c0.7,0,1.5,0.1,2.2,0.3L97.4,176z"/>
	<path class="st92" d="M94.2,174.4c-0.7-0.1-1.5-0.1-2.2,0c-0.5,0.2-1,0.6-1.4,0.9"/>
	<path class="st92" d="M94.4,174.2c-0.7-0.3-1.4-0.4-2.2-0.4c-0.6,0.1-1.1,0.4-1.6,0.6"/>
	<path class="st93" d="M87.9,173.8c0.5-0.3,1-0.5,1.6-0.5c1-0.1,2-0.1,3-0.1"/>
	<path class="st92" d="M86.1,172.6c0.5-0.3,1.1-0.5,1.7-0.5c1.2-0.1,3.2-0.1,3.2-0.1"/>
	<path class="st94" d="M89.7,171c0,0-1.3,0.2-2.8,0.3c-1.4,0.1-2,0.1-2.8,0.1"/>
	<path class="st94" d="M83.1,170.2c0.8,0.1,1.7,0.1,2.6,0c0.7-0.1,1.3-0.3,2-0.6"/>
	<path class="st94" d="M86.4,168.6c-0.9,0.2-1.8,0.3-2.8,0.4c-1.3,0.1-2.7,0.2-4.1,0.1"/>
	<path class="st94" d="M83.7,166.7c-0.9,0.2-1.8,0.3-2.7,0.4c-1.7,0.1-3.3,0.3-3.3,0.3"/>
	<path class="st92" d="M78.8,165.9c0,0,2.8-0.2,3.6-0.2"/>
	<path class="st92" d="M80.9,164.7c0,0-1.5-0.2-2.9-0.2c-0.9,0-1.8,0.1-2.7,0.4"/>
	<path class="st94" d="M79.2,163.6c-0.7-0.1-1.3-0.1-2-0.1c-1.4,0-2.5,0.1-2.5,0.1"/>
	<path class="st94" d="M77.3,162.3c-1-0.2-2-0.3-3-0.4c-1.3,0-2.2,0-2.2,0"/>
	<path class="st92" d="M75.5,161.2c0,0-2.1-0.1-3.1-0.1"/>
	<path class="st92" d="M74,160.2c0,0-2.3-0.1-2.9-0.1"/>
	<path class="st95" d="M79.7,163.9c2.9,1.9,5.8,3.7,7.8,5c4.9,3.2,15,11,15,11l-2.2-0.5c-0.6-0.1-1.3-0.3-1.9-0.3
		c-0.5-1-1.2-1.9-2.1-2.6c-1.7-1.4-6.6-5.3-8.5-6.8C85.8,168.2,79.7,163.9,79.7,163.9z"/>
	<line class="st94" x1="88.8" y1="174.4" x2="88.9" y2="174.2"/>
	<path class="st97" d="M75.3,169.7l-3.1,10.4l-1.7-0.5l3.1-10.4L75.3,169.7z"/>
	<path class="st97" d="M72.4,168.9L68.5,179l-1.6-0.6l-0.8-8.1l-2.6,6.8l-1.6-0.6l3.8-10.1l1.7,0.6l0.8,7.9l2.5-6.6L72.4,168.9z"/>
	<path class="st97" d="M62.7,164.9l-4,8.1l2.4,1.2l-0.8,1.6l-6.3-3.2l0.8-1.6l2.4,1.2l4-8.1L62.7,164.9z"/>
	<path class="st97" d="M58.1,162.5l-5.8,9.2l-5.6-3.5l1-1.6l4.1,2.6l1.3-2l-3.8-2.4l1-1.5l3.8,2.4l1.6-2.5l-4.2-2.6l1-1.6
		L58.1,162.5z"/>
	<path class="st97" d="M51.6,158.3l-6.7,8.5l-3-2.4c-0.6-0.4-1.1-0.9-1.4-1.5c-0.2-0.4-0.3-1-0.2-1.4c0.1-0.6,0.4-1.1,0.8-1.6
		c0.4-0.6,1-1,1.8-1.2c0.7-0.2,1.4,0,2,0.3c-0.1-0.4-0.2-0.9-0.2-1.3c0-0.7,0.1-1.3,0.3-2l0.5-2.3l1.7,1.3l-0.5,2.7
		c-0.1,0.6-0.2,1.2-0.2,1.9c0,0.2,0,0.5,0.2,0.7c0.2,0.3,0.4,0.5,0.6,0.7l0.3,0.2l2.8-3.5L51.6,158.3z M46.3,162.1l-1-0.8
		c-0.4-0.3-0.8-0.6-1.3-0.9c-0.2-0.1-0.5-0.1-0.7,0c-0.3,0.1-0.5,0.3-0.7,0.6c-0.2,0.2-0.3,0.5-0.3,0.8c0,0.2,0,0.5,0.2,0.7
		c0.3,0.4,0.7,0.7,1.1,1l1.1,0.9L46.3,162.1z"/>
	<path class="st97" d="M44.9,152.9l-7.6,7.7l-1.2-1.2l2.5-7.7l-5.1,5.1l-1.2-1.2l7.7-7.7l1.3,1.2l-2.4,7.6l5-5L44.9,152.9z"/>
	<path class="st97" d="M33.9,140.7l1.2,1.5l-1.4,2.1l2.2,2.8l2.4-1l1.2,1.5l-10.6,4.1l-1.2-1.5L33.9,140.7z M32.7,145.9l-2.4,3.5
		l3.9-1.6L32.7,145.9z"/>
	<path class="st97" d="M33.1,139.3l-7.5,5l1.5,2.2l-1.5,1l-3.9-5.9l1.5-1l1.5,2.2l7.5-5L33.1,139.3z"/>
	<path class="st97" d="M30.4,135.1l-9.4,5.4l-0.9-1.6l9.4-5.4L30.4,135.1z"/>
	<path class="st97" d="M24.1,135.1c-1,0.5-2,0.8-3.1,0.9c-0.8,0-1.6-0.1-2.3-0.6c-0.7-0.4-1.2-1-1.5-1.8c-0.5-1.1-0.5-2.4,0-3.4
		c0.7-1.3,1.9-2.3,3.2-2.9c1.3-0.7,2.9-1,4.4-0.7c1.1,0.3,2.1,1.1,2.5,2.1c0.5,1,0.6,2.3,0.1,3.3C26.7,133.5,25.5,134.5,24.1,135.1z
		 M23.3,133.4c0.9-0.4,1.7-1,2.2-1.9c0.6-1,0.3-2.3-0.7-2.9c-0.2-0.1-0.5-0.2-0.8-0.3c-1-0.1-2,0.1-2.9,0.6c-0.9,0.4-1.7,1-2.2,1.8
		c-0.6,1.1-0.2,2.4,0.9,3c0.2,0.1,0.4,0.2,0.7,0.2C21.4,134.1,22.4,133.9,23.3,133.4L23.3,133.4z"/>
	<path class="st97" d="M24.9,124.1l-10.3,3.5l-0.6-1.7l5.7-5.8l-6.9,2.3l-0.5-1.6l10.3-3.5l0.6,1.7l-5.5,5.7l6.7-2.3L24.9,124.1z"/>
	<path class="st97" d="M20.6,108.2l0.4,1.9l-2.2,1.3l0.8,3.5l2.6,0.2l0.4,1.9l-11.4-1.1l-0.4-1.9L20.6,108.2z M17.1,112.3l-3.7,2.1
		l4.2,0.3L17.1,112.3z"/>
	<path class="st97" d="M20.6,107.7l-10.7,1.2l-0.2-1.8l8.9-1l-0.5-4.4l1.8-0.2L20.6,107.7z"/>
	<path class="st97" d="M8.9,94.5v-1.8l6.9,0.1c0.8,0,1.7,0.1,2.5,0.4c0.5,0.2,0.9,0.5,1.2,1c0.3,0.5,0.4,1.1,0.4,1.6
		c0,0.8-0.3,1.5-0.9,2c-0.8,0.5-1.7,0.8-2.7,0.7l-0.2-1.7c0.5,0,0.9-0.1,1.4-0.2c0.3-0.1,0.6-0.5,0.6-0.9c0-0.3-0.1-0.6-0.4-0.8
		c-0.5-0.2-1.2-0.3-1.8-0.3L8.9,94.5z"/>
	<path class="st97" d="M14.5,91.2c-1.1-0.1-2.2-0.4-3.1-0.9c-0.7-0.4-1.3-1-1.7-1.7c-0.3-0.7-0.5-1.5-0.4-2.3
		c0.1-1.2,0.8-2.3,1.8-2.9c1.3-0.7,2.8-1,4.3-0.7c1.5,0.1,3,0.7,4.1,1.8c0.8,0.8,1.2,2,1,3.2c-0.1,1.2-0.7,2.2-1.7,2.9
		C17.5,91.2,15.9,91.5,14.5,91.2z M14.6,89.4c1,0.2,2,0,2.9-0.4c0.6-0.3,1-1,1.1-1.7c0.1-0.7-0.2-1.4-0.7-1.8c-0.8-0.6-1.8-1-2.8-1
		c-1-0.2-2-0.1-2.8,0.4c-0.6,0.3-1,1-1.1,1.7c-0.1,0.7,0.2,1.4,0.7,1.9C12.6,89,13.6,89.3,14.6,89.4z"/>
	<path class="st97" d="M21,82.4l-10.7-2.1l0.4-1.8l10.7,2.1L21,82.4z"/>
	<path class="st97" d="M21.5,79.4l-10.5-2.9l0.5-1.7l8-1.6l-7-1.9l0.4-1.6l10.5,2.9l-0.5,1.7l-7.8,1.6l6.8,1.9L21.5,79.4z"/>
	<path class="st97" d="M24.6,69.4l-8.4-3.3l-1,2.5l-1.7-0.7l2.6-6.6l1.7,0.7l-1,2.5l8.4,3.3L24.6,69.4z"/>
	<path class="st97" d="M27.1,55l1.4-1.2c0.8,0.6,1.4,1.5,1.7,2.5c0.2,0.8,0,1.7-0.4,2.4c-0.5,1-1.5,1.6-2.5,1.8
		c-1.5,0.2-3-0.2-4.2-1c-1.4-0.7-2.5-1.8-3.2-3.2c-0.4-1.1-0.3-2.2,0.2-3.2c0.4-0.8,1.2-1.4,2.1-1.7c0.8-0.2,1.6-0.1,2.4,0.1
		l-0.4,1.8c-0.5-0.2-1-0.2-1.5-0.1c-0.4,0.1-0.8,0.4-1,0.8c-0.3,0.6-0.3,1.3,0,1.8c0.5,0.8,1.3,1.5,2.2,1.9c0.8,0.6,1.8,0.9,2.8,0.9
		c0.6,0,1.2-0.4,1.5-0.9c0.2-0.4,0.3-0.9,0.1-1.3C28,55.9,27.6,55.3,27.1,55z"/>
	<path class="st97" d="M27.4,51.7c-0.9-0.6-1.7-1.4-2.3-2.3c-0.4-0.7-0.6-1.5-0.6-2.3c0-0.8,0.3-1.5,0.8-2.2c0.7-1,1.8-1.6,3-1.7
		c1.5,0,2.9,0.5,4.1,1.5c1.3,0.8,2.3,2.1,2.7,3.6c0.5,2.2-1,4.4-3.2,4.9c-0.1,0-0.3,0-0.4,0.1C30.1,53.1,28.6,52.6,27.4,51.7z
		 M28.4,50.1c0.8,0.6,1.7,1,2.7,1.1c0.7,0,1.4-0.3,1.8-0.9c0.4-0.6,0.5-1.3,0.3-2c-0.4-0.9-1-1.7-1.9-2.2c-0.7-0.6-1.7-1-2.7-1.1
		c-0.7,0-1.4,0.3-1.8,0.9c-0.4,0.6-0.6,1.3-0.3,2C26.9,48.8,27.6,49.6,28.4,50.1L28.4,50.1z"/>
	<path class="st97" d="M37.4,47.1l-7.9-7.4l1.8-2l6.5,3.9l-4.3-6.2l1.8-2l7.9,7.4L42.2,42l-6.2-5.8l5,7.1l-1.2,1.3L32.3,40l6.2,5.8
		L37.4,47.1z"/>
	<path class="st97" d="M44.2,40l-6.9-8.4l2.1-1.7l6,4.7l-3.5-6.7l2.1-1.7l6.9,8.4l-1.3,1.1L44.2,29l4.1,7.7l-1.3,1.1l-6.8-5.5
		l5.5,6.6L44.2,40z"/>
	<path class="st97" d="M51.9,33.9l-6.2-8.9l1.5-1l6.2,8.9L51.9,33.9z"/>
	<path class="st97" d="M52.2,29.3l1.4-1.1c0.9,1.1,1.8,1.4,2.7,0.8c0.4-0.2,0.7-0.6,0.9-1c0.1-0.4,0.1-0.8-0.1-1.2
		c-0.1-0.2-0.3-0.3-0.5-0.5c-0.2-0.1-0.4-0.1-0.6-0.1c-0.6,0.1-1.1,0.2-1.7,0.3c-0.6,0.2-1.2,0.2-1.8,0.2c-0.5-0.1-0.9-0.2-1.3-0.5
		c-0.4-0.3-0.8-0.6-1-1.1c-0.3-0.5-0.5-1-0.5-1.6c0-0.5,0.1-1.1,0.4-1.5c0.3-0.5,0.8-0.9,1.3-1.2c0.7-0.5,1.7-0.7,2.6-0.5
		c0.9,0.3,1.6,0.8,2,1.6l-1.5,1c-0.3-0.4-0.6-0.7-1.1-0.8c-0.4-0.1-0.8,0-1.1,0.3c-0.4,0.2-0.6,0.5-0.8,0.8c-0.1,0.3-0.1,0.6,0,0.8
		c0.2,0.2,0.4,0.4,0.7,0.5c0.6,0,1.2-0.1,1.8-0.3c0.7-0.2,1.4-0.3,2.1-0.3c0.5,0,1,0.2,1.4,0.5c0.5,0.3,0.9,0.8,1.1,1.3
		c0.5,0.7,0.6,1.6,0.5,2.5c-0.3,1-0.9,1.8-1.8,2.2C55.4,31.7,53.7,31.3,52.2,29.3z"/>
	<path class="st97" d="M59.3,25.1l1.5-0.9c0.8,1.2,1.6,1.5,2.6,1.1c0.4-0.2,0.8-0.5,1-0.9c0.2-0.4,0.2-0.8,0-1.2
		c-0.2-0.4-0.6-0.7-1-0.7c-0.6,0-1.1,0.1-1.7,0.2c-0.6,0.1-1.2,0.1-1.8,0c-0.5-0.1-0.9-0.3-1.2-0.6c-0.8-0.7-1.3-1.7-1.2-2.8
		c0-0.5,0.2-1,0.4-1.4c0.4-0.5,0.9-0.8,1.4-1.1c1.5-0.9,3.4-0.4,4.2,1.1c0.1,0.1,0.2,0.3,0.2,0.5l-1.5,0.8c-0.2-0.4-0.6-0.7-1-0.9
		c-0.4-0.1-0.8,0-1.2,0.2c-0.4,0.1-0.7,0.4-0.9,0.8c-0.1,0.3-0.1,0.6,0,0.9c0.1,0.3,0.4,0.5,0.6,0.5c0.6,0.1,1.2,0,1.8-0.1
		c0.7-0.1,1.4-0.2,2.1-0.1c0.5,0.1,0.9,0.3,1.3,0.6c0.4,0.4,0.8,0.8,1,1.4c0.4,0.8,0.5,1.7,0.2,2.5c-0.4,0.9-1.1,1.7-2.1,2
		C62.2,27.9,60.5,27.3,59.3,25.1z"/>
	<path class="st97" d="M68.3,25l-3.9-10.2l1.7-0.6l3.8,10.2L68.3,25z"/>
	<path class="st97" d="M69.2,18.8c-0.3-1-0.4-2.1-0.3-3.2c0.1-0.8,0.4-1.6,0.9-2.2c0.5-0.6,1.2-1,2-1.2c1.2-0.4,2.4-0.2,3.4,0.5
		c1.2,0.9,2,2.2,2.3,3.7c0.5,1.4,0.5,3,0,4.5c-0.5,1.1-1.5,1.9-2.6,2.1c-1.1,0.4-2.3,0.2-3.3-0.4C70.4,21.6,69.6,20.3,69.2,18.8z
		 M71,18.2c0.2,1,0.7,1.8,1.5,2.5c0.6,0.5,1.3,0.6,2,0.4c0.7-0.2,1.2-0.7,1.4-1.4c0.3-1,0.2-2-0.1-2.9c-0.2-1-0.7-1.8-1.4-2.5
		c-0.6-0.5-1.3-0.6-2-0.4c-0.7,0.2-1.2,0.7-1.4,1.4C70.6,16.3,70.7,17.3,71,18.2z"/>
	<path class="st97" d="M80,21.4l-1.8-10.7l1.7-0.3l4.8,6.6l-1.2-7.2l1.7-0.3l1.8,10.7l-1.8,0.3l-4.7-6.4l1.2,7L80,21.4z"/>
	<path class="st97" d="M94.1,14.5c0-0.5,0.2-1,0.5-1.3c0.7-0.7,1.9-0.7,2.7,0c0.4,0.3,0.6,0.8,0.6,1.3c0,1-0.8,1.9-1.8,1.9
		c-0.5,0-1-0.2-1.3-0.5C94.3,15.5,94.1,15,94.1,14.5z"/>
	<path class="st97" d="M110.4,17l1.6,0.9c-0.3,1-0.9,1.8-1.7,2.4c-0.7,0.5-1.6,0.6-2.4,0.5c-1.1-0.1-2.1-0.8-2.6-1.8
		c-0.7-1.3-0.9-2.8-0.6-4.3c0.1-1.6,0.8-3,1.9-4.1c0.8-0.8,2-1.1,3.1-0.9c0.9,0.1,1.8,0.6,2.3,1.4c0.5,0.7,0.7,1.5,0.7,2.3l-1.8,0.2
		c0-0.5-0.2-1-0.5-1.4c-0.3-0.4-0.7-0.6-1.1-0.6c-0.6-0.1-1.3,0.1-1.7,0.6c-0.6,0.8-0.9,1.7-1,2.7c-0.2,1-0.2,2,0.2,3
		c0.3,0.6,0.8,1,1.4,1.1c0.5,0.1,0.9-0.1,1.3-0.4C109.9,18.2,110.2,17.6,110.4,17z"/>
	<path class="st97" d="M113.5,16.1c0.3-1.1,0.8-2.1,1.4-2.9c0.5-0.6,1.2-1.1,1.9-1.4c0.8-0.2,1.6-0.2,2.3,0c1.2,0.3,2.1,1.1,2.6,2.2
		c0.5,1.4,0.6,2.9,0.1,4.3c-0.3,1.5-1.1,2.8-2.3,3.8c-1.9,1.2-4.4,0.7-5.7-1.2c-0.1-0.1-0.1-0.2-0.2-0.4
		C113.1,19.1,113,17.6,113.5,16.1z M115.3,16.5c-0.3,0.9-0.3,2,0,2.9c0.2,0.7,0.8,1.2,1.5,1.4c0.7,0.2,1.4,0,2-0.4
		c0.7-0.7,1.2-1.6,1.4-2.6c0.3-0.9,0.4-1.9,0.1-2.9c-0.2-0.7-0.8-1.2-1.5-1.3c-0.7-0.2-1.4-0.1-2,0.4
		C116,14.7,115.5,15.6,115.3,16.5L115.3,16.5z"/>
	<path class="st97" d="M121.2,23.8l4.1-10l2.5,1l-1.3,7.5l4.3-6.2l2.5,1l-4.1,10l-1.6-0.6l3.2-7.9l-4.9,7.3l-1.6-0.7l1.6-8.6
		l-3.2,7.9L121.2,23.8z"/>
	<path class="st97" d="M130.2,27.6l5.4-9.4l2.4,1.3l-2.3,7.2l5.1-5.7l2.4,1.3l-5.4,9.4l-1.4-0.8l4.2-7.4l-5.8,6.6l-1.5-0.8l2.7-8.3
		l-4.2,7.4L130.2,27.6z"/>
	<path class="st97" d="M138.5,32.6l6.1-9l1.5,1l-6.1,9L138.5,32.6z"/>
	<path class="st97" d="M142.8,31.1l1.5,0.9c-0.7,1.2-0.6,2.2,0.2,2.8c0.4,0.3,0.8,0.5,1.3,0.5c0.4,0,0.8-0.2,1-0.5
		c0.1-0.2,0.2-0.4,0.3-0.6c0-0.2,0-0.4-0.1-0.6c-0.3-0.5-0.6-1-0.9-1.4c-0.4-0.5-0.7-1-0.9-1.6c-0.1-0.5-0.1-0.9,0-1.4
		c0.1-0.5,0.3-0.9,0.6-1.3c0.3-0.4,0.8-0.8,1.3-1c0.5-0.2,1-0.3,1.6-0.2c0.6,0.1,1.1,0.4,1.6,0.8c1.4,0.9,1.9,2.8,0.9,4.3
		c-0.1,0.2-0.2,0.3-0.3,0.4l-1.5-1c0.3-0.4,0.4-0.8,0.4-1.3c-0.1-0.4-0.3-0.8-0.7-1c-0.3-0.3-0.7-0.4-1.1-0.5
		c-0.3,0-0.6,0.1-0.8,0.3c-0.2,0.2-0.2,0.5-0.2,0.8c0.2,0.6,0.5,1.1,0.9,1.5c0.4,0.6,0.8,1.2,1,1.9c0.1,0.5,0.1,1,0,1.5
		c-0.1,0.6-0.4,1.1-0.8,1.5c-1,1.4-3,1.8-4.4,0.8c-0.2-0.1-0.3-0.2-0.5-0.4C141.6,35,141.4,33.2,142.8,31.1z"/>
	<path class="st97" d="M149.1,36.1l1.4,1.1c-0.8,1.1-0.8,2.1-0.1,2.8c0.3,0.3,0.8,0.6,1.2,0.6c0.4,0,0.8-0.1,1.1-0.4
		c0.3-0.3,0.4-0.8,0.3-1.2c-0.2-0.5-0.5-1-0.8-1.5c-0.3-0.5-0.6-1.1-0.7-1.7c-0.1-0.5,0-0.9,0.1-1.4c0.2-0.5,0.4-0.9,0.8-1.2
		c0.4-0.4,0.9-0.7,1.4-0.9c0.5-0.2,1-0.2,1.5,0c0.6,0.2,1.1,0.5,1.6,0.9c0.7,0.6,1.1,1.4,1.2,2.3c0,0.9-0.4,1.8-1,2.4l-1.4-1.2
		c0.3-0.3,0.5-0.8,0.5-1.2c-0.1-0.4-0.3-0.7-0.6-1c-0.3-0.3-0.6-0.5-1-0.6c-0.3-0.1-0.6,0-0.8,0.3c-0.2,0.2-0.3,0.5-0.3,0.8
		c0.1,0.6,0.4,1.1,0.7,1.6c0.4,0.6,0.7,1.3,0.8,2c0.1,0.5,0,1-0.1,1.4c-0.2,0.5-0.5,1-0.9,1.4c-0.6,0.6-1.4,1-2.3,1.1
		c-1,0-2-0.4-2.6-1.2C147.6,39.8,147.5,38.1,149.1,36.1z"/>
	<path class="st97" d="M152.4,44.4l8.1-7.3l1.2,1.3l-8.1,7.3L152.4,44.4z"/>
	<path class="st97" d="M158.4,43c0.8-0.7,1.8-1.2,2.9-1.5c0.8-0.2,1.6-0.2,2.4,0c0.7,0.3,1.4,0.8,1.9,1.4c0.8,0.9,1,2.2,0.7,3.4
		c-0.4,1.4-1.3,2.7-2.6,3.5c-1.2,1-2.6,1.6-4.1,1.6c-1.2,0-2.3-0.6-2.9-1.6c-0.7-0.9-1-2.1-0.8-3.2C156.2,45,157.2,43.8,158.4,43z
		 M159.6,44.4c-0.8,0.5-1.5,1.3-1.8,2.3c-0.2,0.7-0.1,1.4,0.3,2c0.4,0.6,1.1,0.9,1.8,0.8c2-0.3,3.6-1.6,4.5-3.4
		c0.2-0.7,0.1-1.4-0.4-2c-0.4-0.6-1.1-0.9-1.8-0.9C161.2,43.3,160.3,43.7,159.6,44.4z"/>
	<path class="st97" d="M159.8,53.8l9.3-5.6l0.9,1.5l-4.3,6.9l6.2-3.7l0.9,1.4l-9.3,5.6l-0.9-1.6l4.2-6.7l-6.1,3.7L159.8,53.8z"/>
	<path class="st97" d="M165.4,63.5l10.1-4.1l1,2.5l-6.2,4.3l7.5-1.3l1,2.5l-10.1,4.1l-0.6-1.6l7.9-3.2l-8.6,1.6l-0.7-1.6l7.2-4.8
		L166,65L165.4,63.5z"/>
	<path class="st97" d="M168.9,72.6l10.4-3.2l0.5,1.7l-10.4,3.2L168.9,72.6z"/>
	<path class="st97" d="M169.6,74.5l6.2,1.7l4.4-4l0.5,2l-2.8,2.5l3.6,1l0.5,2l-5.7-1.5l-4.8,4.3l-0.5-2.1l3.1-2.8l-4-1.1L169.6,74.5
		z"/>
	<path class="st97" d="M171.7,84.8l8.9-1.2l-0.4-2.6l1.8-0.2l0.9,7l-1.8,0.2l-0.4-2.6l-8.9,1.2L171.7,84.8z"/>
	<path class="st97" d="M172.4,89.8l10.9-0.4l0.3,6.6l-1.8,0.1l-0.2-4.8l-2.4,0.1l0.2,4.5l-1.8,0.1l-0.2-4.5l-2.9,0.1l0.2,5l-1.8,0.1
		L172.4,89.8z"/>
	<path class="st97" d="M172.4,100.3l10.8,0.7l-0.1,1.8l-10.8-0.7L172.4,100.3z"/>
	<path class="st97" d="M172.3,103.2l10.8,1.5l-0.2,1.7l-7.7,2.6l7.2,1l-0.2,1.7l-10.8-1.5l0.2-1.8l7.5-2.6l-7-1L172.3,103.2z"/>
	<path class="st97" d="M170.6,113.4l8.8,2.1l0.6-2.6l1.8,0.4l-1.7,6.9l-1.8-0.4l0.6-2.6l-8.8-2.1L170.6,113.4z"/>
	<path class="st97" d="M169.4,118.3l10.2,3.6l-2.2,6.2l-1.7-0.6l1.6-4.5l-2.3-0.8l-1.5,4.2l-1.7-0.6l1.5-4.2l-2.8-1l-1.6,4.7
		l-1.7-0.6L169.4,118.3z"/>
	<path class="st97" d="M166.8,125.5l9.8,4.6l-1.6,3.4c-0.3,0.7-0.6,1.2-1.1,1.8c-0.4,0.3-0.9,0.5-1.4,0.5c-0.6,0-1.2-0.1-1.7-0.4
		c-0.7-0.3-1.2-0.8-1.6-1.4c-0.3-0.6-0.3-1.3-0.1-2c-0.4,0.2-0.8,0.4-1.2,0.5c-0.7,0.1-1.3,0.2-2,0.2l-2.4,0.1l0.9-1.9l2.7-0.2
		c0.6,0,1.2-0.1,1.9-0.2c0.2,0,0.4-0.1,0.6-0.3c0.2-0.2,0.4-0.5,0.5-0.8l0.2-0.3l-4.1-1.9L166.8,125.5z M171.7,129.8l-0.6,1.2
		c-0.2,0.5-0.4,0.9-0.6,1.4c0,0.2,0,0.5,0.2,0.7c0.2,0.3,0.4,0.4,0.7,0.6c0.3,0.1,0.5,0.2,0.8,0.2c0.2,0,0.5-0.1,0.6-0.3
		c0.3-0.4,0.5-0.8,0.7-1.3l0.6-1.3L171.7,129.8z"/>
	<path class="st97" d="M163.2,133.1l9.3,5.7l-0.9,1.4l-8.1-0.7l6.2,3.8l-0.9,1.4l-9.2-5.7l0.9-1.5l7.9,0.7l-6-3.7L163.2,133.1z"/>
	<path class="st97" d="M153.8,146.5l1.2-1.5l2.4,0.9l2.2-2.8l-1.5-2.1l1.2-1.5l6.4,9.4l-1.2,1.5L153.8,146.5z M159.2,146.5l3.9,1.5
		l-2.4-3.4L159.2,146.5z"/>
	<path class="st97" d="M152.8,147.5l6.6,6.1l1.8-1.9l1.3,1.3l-4.8,5.2l-1.3-1.3l1.8-1.9l-6.6-6.1L152.8,147.5z"/>
	<path class="st97" d="M149.3,151l7.5,7.9l-1.3,1.2l-7.5-7.9L149.3,151z"/>
	<path class="st97" d="M150.9,157c0.7,0.8,1.3,1.8,1.6,2.9c0.2,0.8,0.2,1.6,0,2.4c-0.3,0.7-0.7,1.4-1.4,1.9
		c-0.9,0.8-2.2,1.1-3.3,0.8c-1.4-0.4-2.7-1.3-3.6-2.5c-1-1.1-1.6-2.6-1.7-4.1c0-1.2,0.6-2.3,1.5-3c0.9-0.8,2.1-1.1,3.2-0.9
		C148.7,154.9,150,155.8,150.9,157z M149.5,158.2c-0.6-0.8-1.4-1.4-2.3-1.7c-0.7-0.2-1.4-0.1-2,0.4c-0.5,0.4-0.8,1.1-0.8,1.8
		c0.1,1,0.6,1.9,1.2,2.7c0.6,0.8,1.4,1.4,2.3,1.7c1.2,0.3,2.4-0.4,2.7-1.6c0.1-0.2,0.1-0.4,0.1-0.7
		C150.6,159.9,150.2,159,149.5,158.2z"/>
	<path class="st97" d="M140.1,158.7l5.8,9.2l-1.5,0.9l-7-4.2l3.9,6.1l-1.4,0.9l-5.8-9.2l1.5-1l6.8,4.1l-3.8-6L140.1,158.7z"/>
	<path class="st97" d="M125.8,166.7l1.7-0.9l1.8,1.9l3.2-1.6l-0.4-2.5l1.7-0.8l1.7,11.3l-1.7,0.8L125.8,166.7z M130.7,169.1l2.9,3.1
		l-0.7-4.1L130.7,169.1z"/>
	<path class="st97" d="M125.4,166.8l3.8,10.1l-1.7,0.6l-3.1-8.4l-4.2,1.6l-0.6-1.7L125.4,166.8z"/>
	<path class="st97" d="M118.9,169.2l2.8,10.5l-6.4,1.7l-0.5-1.8l4.6-1.2l-0.6-2.3l-4.3,1.1l-0.5-1.8l4.3-1.1l-0.8-2.9l-4.8,1.3
		l-0.5-1.8L118.9,169.2z"/>
	<path class="st97" d="M89.2,160.2v5.6c0,0.3,0.1,0.6,0.3,0.6H90v1h-2.7v-1h0.5c0.2,0,0.3-0.2,0.3-0.6v-3.6h-0.8v-1h0.2
		c0.4,0,0.7-0.2,0.9-0.9L89.2,160.2z"/>
	<path class="st97" d="M93.3,164.1c-0.2,0.4-0.7,0.5-1.1,0.5c-0.9,0-1.5-0.7-1.5-2.2c0-1.7,0.9-2.4,1.8-2.4c1.4,0,2,1.6,2,3.4
		c0,2.4-0.7,4-2.2,4l0,0c-0.8,0-1.4-0.5-1.5-1.3c0-0.1,0-0.1,0-0.2c0-0.7,0.3-1,0.6-1c0.4,0,0.7,0.4,0.6,0.7c0,0,0,0,0,0
		c0,0.3-0.1,0.5-0.3,0.7c0.1,0.1,0.2,0.2,0.4,0.2c0.7,0,1-0.9,1-2.2L93.3,164.1z M92.1,162.3c0,0.9,0.2,1.3,0.6,1.3s0.6-0.4,0.6-1.3
		S93,161,92.6,161S92.1,161.4,92.1,162.3L92.1,162.3z"/>
	<path class="st97" d="M99.2,163.8c0,2.1-0.5,3.7-2,3.7s-2-1.6-2-3.7s0.5-3.7,2-3.7C98.7,160,99.2,161.7,99.2,163.8z M97.2,166.6
		c0.5,0,0.7-0.7,0.7-2.8s-0.1-2.8-0.7-2.8c-0.5,0-0.7,0.8-0.7,2.8S96.7,166.6,97.2,166.6L97.2,166.6z"/>
	<path class="st97" d="M102.3,164.1c-0.2,0.4-0.7,0.5-1.1,0.5c-0.8,0-1.5-0.7-1.5-2.2c0-1.7,0.9-2.4,1.8-2.4c1.4,0,2,1.6,2,3.4
		c0,2.4-0.7,4-2.2,4l0,0c-0.8,0-1.4-0.6-1.5-1.3c0-0.1,0-0.1,0-0.2c0-0.7,0.3-1,0.6-1c0.4,0,0.7,0.4,0.6,0.7c0,0,0,0,0,0
		c0,0.3-0.1,0.5-0.3,0.7c0.1,0.1,0.2,0.2,0.4,0.2c0.7,0,1-0.9,1-2.2L102.3,164.1z M101.1,162.3c0,0.9,0.2,1.3,0.6,1.3
		s0.6-0.4,0.6-1.3s-0.2-1.3-0.6-1.3C101.3,161,101.1,161.4,101.1,162.3L101.1,162.3z"/>
</g>
</svg>
